<svg version="1.0" xmlns="http://www.w3.org/2000/svg"
  viewBox="0 0 1110.843295 1200.054777"
 preserveAspectRatio="xMidYMid meet">
<metadata>
For more coloring pages, please visit ColoringAll.com
</metadata>
<g transform="translate(-0.000000,1200.333417) scale(0.100000,-0.100000)"
fill="#000000" stroke="none">
<path d="M5668 11991 c-39 -31 -62 -108 -56 -193 4 -55 14 -86 42 -141 27 -53
33 -73 24 -79 -7 -4 -60 -26 -118 -49 -111 -44 -181 -80 -216 -111 -21 -18
-21 -18 -48 22 -50 76 -120 86 -219 32 -97 -52 -197 -199 -197 -287 0 -79 76
-166 144 -165 17 1 49 7 71 15 50 18 47 18 43 -2 -2 -9 -21 -26 -43 -37 -46
-24 -65 -56 -65 -110 0 -41 18 -62 122 -148 25 -20 58 -62 77 -97 17 -33 43
-74 57 -91 21 -24 23 -30 9 -30 -43 0 -145 90 -145 128 0 32 -22 42 -94 42
-54 0 -78 -5 -101 -20 -16 -11 -40 -20 -52 -20 -16 0 -25 -11 -38 -43 -22 -58
-11 -84 68 -160 84 -82 98 -104 86 -135 -5 -14 -12 -74 -16 -133 -6 -103 -5
-111 21 -169 35 -77 32 -96 -14 -92 -89 8 -300 145 -300 195 0 9 18 28 40 42
23 14 43 32 46 40 5 12 13 10 42 -10 20 -14 42 -25 49 -25 15 0 17 16 3 25 -5
3 -10 17 -10 31 0 13 -16 57 -36 97 -38 74 -45 122 -30 185 l9 34 -47 -33
c-30 -22 -46 -40 -46 -54 0 -32 38 -136 57 -157 20 -22 16 -22 -30 -3 -80 33
-279 2 -412 -64 -185 -92 -340 -207 -595 -443 -352 -324 -578 -514 -644 -542
-17 -7 -61 -32 -99 -55 -37 -22 -72 -41 -78 -41 -6 0 -59 39 -119 88 -59 48
-137 108 -173 134 -132 96 -662 615 -721 706 -18 27 -27 61 -36 132 -14 125
-38 172 -150 295 -54 60 -95 114 -101 136 -15 48 0 118 51 230 64 143 63 185
-10 254 -28 26 -38 30 -88 29 -113 -2 -202 -47 -278 -141 -60 -73 -87 -150
-88 -245 -1 -65 2 -81 22 -108 23 -30 23 -32 6 -51 -22 -24 -177 -130 -231
-157 -61 -32 -111 -40 -330 -57 -238 -19 -285 -30 -430 -100 -195 -93 -253
-144 -253 -218 0 -40 17 -42 90 -8 66 31 75 32 302 46 128 8 254 20 280 26 26
6 52 9 57 7 5 -1 -7 -45 -26 -96 l-36 -93 -51 6 c-28 3 -152 7 -276 8 -213 2
-228 1 -273 -20 -30 -14 -51 -31 -57 -48 -14 -36 -12 -134 3 -167 12 -28 215
-258 227 -258 4 0 38 -28 76 -61 38 -34 93 -78 123 -97 l55 -35 195 7 c110 4
242 15 301 25 58 10 107 17 109 14 3 -2 8 -106 12 -231 9 -258 21 -396 49
-564 37 -214 119 -496 180 -618 88 -174 283 -350 509 -459 47 -23 91 -41 97
-41 7 0 15 -4 19 -10 3 -5 -48 -146 -114 -312 -65 -167 -130 -335 -144 -374
-97 -272 -158 -676 -158 -1054 -1 -212 5 -281 47 -535 47 -283 84 -425 164
-625 174 -434 390 -744 795 -1138 281 -274 460 -415 741 -582 170 -102 642
-338 765 -384 173 -64 391 -136 518 -172 69 -20 138 -43 155 -51 66 -34 591
-438 751 -578 254 -222 567 -525 542 -525 -3 0 -36 15 -73 32 -56 27 -84 33
-151 36 -107 5 -161 -18 -204 -87 -59 -97 -55 -94 -123 -88 -33 2 -108 13
-166 23 -84 14 -166 18 -415 18 -307 1 -311 1 -420 -27 -60 -15 -138 -41 -172
-58 -73 -35 -176 -132 -219 -205 -26 -44 -29 -58 -28 -129 2 -153 56 -233 220
-327 61 -35 71 -44 57 -52 -9 -5 -100 -10 -202 -10 -102 -1 -192 -5 -198 -9
-7 -5 -13 -16 -13 -25 0 -26 -20 -1 -70 91 -30 54 -57 89 -80 104 -73 47 -72
45 -85 132 -10 68 -10 84 2 88 18 7 16 20 -7 43 -31 31 -111 27 -205 -11 -87
-35 -105 -30 -105 29 0 28 8 42 40 72 48 44 51 75 14 119 -18 22 -24 38 -20
53 7 28 -19 58 -51 58 -36 0 -38 -22 -8 -88 l27 -60 -24 -32 c-35 -48 -31
-146 10 -265 17 -49 34 -107 38 -128 9 -52 35 -67 116 -67 47 0 71 -5 82 -16
9 -8 16 -16 16 -17 0 -1 4 -18 10 -37 l10 -34 -31 37 c-38 47 -67 63 -82 48
-8 -8 -4 -18 16 -37 51 -47 36 -137 -35 -203 -18 -17 -29 -33 -26 -36 10 -10
117 23 176 55 49 26 65 29 195 35 78 4 175 13 216 21 94 17 431 31 1096 44
286 6 599 16 695 22 217 15 466 15 630 1 69 -6 395 -14 725 -18 764 -8 1088
-20 1180 -41 50 -11 151 -18 355 -22 248 -6 288 -9 311 -25 24 -16 32 -16 95
-3 38 8 119 22 179 31 113 18 175 37 175 54 0 5 -48 12 -107 15 -193 11 -398
27 -420 33 -28 7 -30 23 -3 23 61 0 264 124 345 211 78 84 92 144 54 243 -58
158 -244 255 -602 316 -177 30 -447 24 -791 -16 -179 -21 -231 -13 -325 50
-60 40 -121 64 -248 96 -30 7 -43 16 -43 28 0 9 22 67 49 127 27 61 70 157 95
215 45 101 53 118 100 205 57 106 217 345 265 398 30 32 80 75 110 94 141 90
534 468 694 668 182 227 335 489 418 715 52 143 97 336 110 474 15 165 6 614
-16 785 -52 405 -204 916 -406 1367 -33 74 -58 142 -55 149 2 7 38 38 78 68
255 191 572 659 757 1119 103 256 179 435 210 495 32 65 37 83 22 83 -15 0
-83 -114 -196 -331 -234 -444 -300 -567 -376 -694 -43 -73 -79 -138 -79 -144
0 -6 -4 -11 -10 -11 -5 0 -20 -15 -32 -34 -35 -53 -119 -163 -163 -217 -87
-103 -310 -276 -420 -324 -67 -30 -171 -55 -226 -55 -174 0 -506 334 -683 688
-95 190 -199 469 -231 623 -35 164 -79 584 -94 886 -9 182 -16 220 -32 190
-12 -20 -29 -226 -29 -344 0 -97 -12 -149 -33 -140 -35 16 -247 100 -357 142
-69 26 -129 51 -133 55 -4 4 12 12 35 19 138 41 418 174 460 218 19 20 20 25
8 33 -18 11 -46 5 -120 -25 -122 -50 -446 -132 -575 -145 -112 -12 -246 0
-350 30 -134 39 -362 80 -635 115 -445 56 -610 85 -610 104 0 17 132 124 276
224 133 93 135 112 6 57 -39 -16 -78 -30 -86 -30 -9 0 -16 -6 -16 -14 0 -8
-29 -38 -65 -67 -36 -30 -93 -78 -128 -107 -65 -55 -106 -72 -172 -72 -54 0
-85 10 -85 26 0 8 35 39 78 70 134 98 172 143 172 201 0 74 -118 173 -207 173
-29 0 -61 15 -52 24 3 3 70 10 150 16 284 21 352 41 500 151 48 35 108 80 135
99 26 19 88 80 137 135 237 267 267 339 266 635 -2 187 -2 186 -34 -50 -14
-107 -19 -124 -80 -245 -44 -90 -81 -149 -118 -190 -61 -68 -143 -130 -151
-116 -4 5 19 57 49 115 31 58 51 106 46 106 -5 0 -34 -28 -65 -62 l-56 -63 0
47 c0 77 36 241 85 381 47 138 52 162 35 172 -18 11 -41 -17 -79 -95 l-37 -75
-106 -3 -106 -3 -56 -60 c-54 -58 -71 -99 -42 -99 7 0 19 7 26 15 17 20 27 12
34 -29 6 -34 48 -76 75 -76 16 0 14 5 -19 52 -38 56 -46 90 -25 112 9 9 26 16
37 16 17 0 19 -5 15 -27 -8 -43 16 -88 61 -113 22 -12 45 -33 51 -47 14 -30
14 -29 -5 -47 -11 -12 -35 -16 -88 -16 -71 0 -73 1 -114 40 -62 60 -84 111
-90 203 -5 77 -4 81 37 160 22 45 58 101 80 125 34 37 44 42 82 42 29 0 70
-12 118 -35 107 -48 108 -48 132 120 14 104 84 418 105 473 9 23 20 42 25 42
5 0 9 -2 9 -4 0 -27 39 -194 79 -334 27 -98 52 -190 56 -206 4 -20 9 -26 16
-19 13 13 -15 165 -72 397 -48 197 -50 246 -8 327 35 71 30 89 -13 39 -98
-116 -237 -477 -256 -665 -10 -95 -24 -95 -88 2 -29 43 -55 84 -58 90 -9 16 8
49 50 95 73 81 52 165 -56 224 -55 30 -63 49 -49 112 28 127 153 265 315 346
119 59 233 58 272 -5 11 -18 10 -25 -5 -47 -46 -69 -64 -218 -39 -317 32 -130
62 -219 74 -223 18 -6 15 17 -14 131 -31 122 -29 194 10 280 30 65 33 95 11
103 -8 4 -15 9 -15 13 0 9 66 41 85 41 8 0 15 7 15 16 0 9 7 31 16 50 20 42
14 60 -24 69 -45 9 -68 39 -56 72 12 36 56 67 82 59 25 -8 32 -27 40 -114 l7
-67 43 -6 c34 -4 53 -16 92 -54 27 -26 54 -61 60 -76 7 -15 46 -55 89 -87 42
-33 87 -71 100 -86 l24 -25 -28 -78 c-32 -92 -58 -138 -91 -160 -19 -12 -27
-13 -39 -3 -30 25 -4 70 41 70 15 0 24 6 24 15 0 17 -27 19 -66 5 -23 -9 -31
-7 -51 12 -31 29 -66 94 -123 226 -47 108 -63 129 -75 93 -9 -29 43 -153 115
-274 103 -174 204 -253 236 -187 6 14 31 66 54 115 48 101 132 236 176 279 64
63 183 96 345 96 l57 0 60 -65 c170 -181 240 -361 213 -550 -14 -98 -49 -210
-80 -253 -11 -17 -21 -35 -21 -41 0 -37 -172 -179 -257 -211 l-46 -17 81 -5
c127 -7 145 -35 93 -143 -47 -100 -133 -174 -279 -243 -86 -40 -78 -52 21 -32
135 26 234 98 327 236 27 39 60 78 74 87 25 17 115 41 123 34 2 -3 -1 -35 -7
-73 -24 -152 -127 -344 -264 -490 -117 -127 -233 -198 -403 -251 -87 -27 -91
-27 -373 -28 -267 0 -289 1 -355 22 -38 12 -73 19 -78 14 -15 -15 109 -70 209
-93 83 -19 126 -22 269 -21 218 1 307 14 442 65 189 71 287 130 391 236 l63
64 -3 -219 c-2 -120 -7 -224 -11 -231 -14 -21 -34 4 -51 63 -17 57 -71 122
-126 150 -44 23 -86 6 -147 -58 -61 -65 -101 -122 -145 -212 -78 -155 -111
-289 -89 -357 25 -76 80 -92 193 -58 70 21 77 26 168 120 l95 98 74 7 c84 7
91 3 91 -57 0 -104 42 -188 111 -224 64 -33 174 -7 231 53 49 52 118 168 138
232 41 131 38 268 -6 321 -22 26 -33 30 -73 30 -94 0 -188 -39 -269 -113 -24
-21 -46 -36 -50 -33 -7 7 38 157 79 266 16 41 35 107 43 146 8 39 27 105 41
148 31 93 48 285 43 511 -1 83 1 160 6 173 14 38 -25 27 -100 -29 -124 -92
-229 -129 -304 -109 -67 18 -57 40 99 202 l54 57 46 -26 c78 -44 77 -41 19
-93 -29 -27 -50 -51 -45 -56 11 -12 141 82 194 140 55 61 82 117 83 169 0 61
-23 45 -78 -54 -17 -30 -40 -63 -51 -73 -18 -17 -21 -16 -58 2 -21 11 -46 29
-56 40 -17 19 -17 22 4 83 34 98 39 321 11 416 -29 95 -69 153 -181 264 -117
116 -134 123 -291 123 -134 1 -218 -21 -314 -79 -32 -19 -67 -35 -77 -35 -29
0 -133 55 -230 122 -124 84 -217 173 -241 227 -21 50 -54 91 -74 91 -7 0 -31
-16 -54 -35 -47 -39 -60 -43 -60 -17 0 38 22 89 70 162 27 42 50 84 50 93 0
33 -42 17 -101 -40 l-59 -56 0 -139 c0 -132 -1 -138 -20 -138 -28 0 -63 37
-93 96 -38 77 -41 104 -17 199 27 108 25 125 -12 96z m282 -481 c-19 -13 -30
-13 -30 0 0 6 10 10 23 10 18 0 19 -2 7 -10z m-720 -107 c27 -35 22 -63 -27
-163 -74 -146 -149 -189 -207 -119 -47 55 -30 132 46 215 38 42 124 94 155 94
6 0 21 -12 33 -27z m1181 -85 c73 -45 86 -60 65 -77 -9 -8 -21 -5 -42 12 -35
26 -110 107 -99 107 4 0 39 -19 76 -42z m-4742 -283 c29 -29 29 -30 -48 -205
-89 -202 -85 -236 40 -386 110 -131 133 -175 153 -289 17 -96 22 -104 130
-219 36 -38 78 -88 92 -110 35 -53 280 -297 414 -412 58 -49 170 -139 250
-199 175 -132 272 -227 324 -317 36 -63 56 -83 56 -57 0 6 -20 58 -45 115 -25
56 -45 112 -45 123 0 15 14 25 58 41 121 45 298 174 602 435 468 404 726 585
964 679 75 30 100 36 109 27 17 -17 -20 -82 -55 -99 -23 -11 -28 -20 -28 -48
0 -72 49 -126 185 -204 l90 -51 37 17 c51 23 110 14 193 -31 37 -19 73 -35 81
-35 23 0 17 -17 -28 -78 -59 -80 -89 -112 -107 -112 -9 0 -50 -27 -91 -61 -81
-64 -265 -161 -343 -180 -70 -17 -77 -3 -34 60 49 71 79 154 84 236 5 65 3 72
-21 94 -41 38 -105 39 -210 3 -163 -56 -358 -198 -405 -295 -25 -51 -27 -104
-6 -133 20 -29 107 -65 174 -71 69 -7 93 -21 115 -68 22 -45 14 -68 -50 -146
-64 -78 -94 -143 -94 -204 l0 -52 -97 -6 c-125 -9 -307 -9 -450 0 -99 5 -113
8 -113 24 0 24 85 250 122 324 17 33 45 80 63 105 18 25 55 82 83 127 64 104
144 209 270 355 54 63 102 121 107 128 42 68 -373 -347 -473 -474 -33 -41 -91
-126 -128 -188 -118 -197 -385 -448 -476 -448 -32 0 -361 -84 -478 -121 -116
-38 -140 -51 -262 -153 l-97 -81 -7 -62 c-8 -82 0 -122 36 -172 22 -30 37 -41
56 -41 21 0 25 -4 21 -19 -2 -10 -53 -97 -112 -192 -59 -95 -135 -224 -167
-286 -34 -63 -71 -121 -85 -130 -23 -15 -27 -15 -66 4 -23 11 -82 53 -130 92
-49 39 -100 77 -115 85 -61 31 -225 265 -302 430 -89 191 -119 285 -151 480
-16 99 -50 287 -75 416 -25 129 -48 263 -51 297 l-6 61 44 27 c81 50 166 145
130 145 -5 0 -58 -22 -118 -49 -176 -79 -252 -94 -493 -98 l-205 -4 -87 53
c-65 40 -111 80 -188 162 -136 145 -160 180 -160 228 0 64 23 78 129 78 107 0
139 -17 189 -100 40 -66 38 -93 -13 -159 -61 -77 -19 -64 59 19 l48 51 38 -15
c21 -8 40 -12 44 -9 16 17 2 45 -32 67 -21 13 -50 37 -64 54 -25 30 -54 89
-47 96 2 2 55 2 117 -1 l114 -6 -7 -36 c-3 -20 -8 -49 -11 -65 -9 -45 12 -22
31 33 20 60 102 206 165 291 53 72 77 117 67 127 -4 3 -55 -12 -114 -35 -108
-41 -109 -41 -278 -46 -93 -3 -197 -2 -230 2 -59 7 -59 7 -35 23 73 47 208 79
435 104 230 25 322 47 410 95 87 48 87 47 55 -65 -18 -61 -19 -79 -10 -140 15
-90 50 -164 97 -201 66 -52 104 -76 110 -70 3 3 -10 30 -29 59 -97 146 -117
220 -93 340 21 103 70 231 107 277 34 43 35 60 4 60 -22 0 -26 6 -32 45 -22
151 77 301 237 359 59 22 126 14 158 -19z m3531 -75 c46 -25 27 -133 -26 -146
-33 -8 -68 9 -97 47 -27 37 -15 66 36 90 48 21 61 23 87 9z m135 -71 c8 -24
-22 -72 -47 -77 -23 -5 -38 80 -22 122 5 14 10 13 34 -4 16 -11 32 -30 35 -41z
m-205 -306 l52 -78 -57 -52 c-31 -29 -62 -53 -70 -53 -7 0 -23 26 -35 58 -43
112 -39 159 12 184 18 9 36 17 40 17 3 1 29 -34 58 -76z m2328 -328 c34 -74
36 -203 6 -311 -14 -53 -32 -69 -65 -59 -25 8 -24 37 2 200 11 72 23 145 25
163 6 38 17 41 32 7z m-2083 -180 c0 -16 -5 -30 -12 -32 -14 -5 -28 40 -18 57
12 19 30 4 30 -25z m2103 -275 c-5 -49 -44 -141 -63 -147 -6 -1 -18 16 -27 38
-20 47 -38 47 -53 1 -15 -43 -24 -50 -41 -28 -21 30 -17 74 12 124 25 43 27
44 67 38 28 -4 51 -1 67 9 39 22 43 19 38 -35z m-2103 -47 c10 -83 20 -103 50
-103 33 0 44 -26 19 -45 -30 -23 -169 -94 -215 -110 -77 -27 -73 -6 15 93 76
85 77 105 5 52 -23 -16 -46 -27 -50 -24 -5 3 0 23 12 44 29 52 135 164 147
156 5 -3 13 -31 17 -63z m1935 -168 c9 -8 34 -18 56 -23 l39 -8 -1 -50 c-1
-28 -7 -60 -13 -72 -14 -27 -41 -18 -41 14 0 25 -18 32 -37 13 -16 -16 -29 13
-37 84 -8 61 1 72 34 42z m-2188 -80 c3 -51 6 -60 23 -63 73 -11 83 -22 37
-46 -37 -19 -141 -38 -158 -28 -11 6 -6 17 23 47 40 43 33 53 -23 35 -19 -7
-38 -9 -41 -6 -3 3 23 35 58 71 34 36 66 62 70 58 4 -5 9 -35 11 -68z m-219
-110 c2 -25 12 -54 21 -64 9 -10 16 -21 16 -24 0 -10 -122 -8 -138 1 -27 17
46 132 83 132 7 0 15 -19 18 -45z m2427 -111 c0 -28 -6 -46 -20 -59 -19 -17
-20 -17 -30 9 -11 31 -13 89 -3 125 l6 24 24 -29 c15 -20 23 -42 23 -70z
m-2609 37 c-17 -31 -50 -46 -58 -25 -4 10 4 24 23 39 32 26 52 18 35 -14z
m-1251 -477 c0 -17 -6 -36 -12 -41 -18 -14 -138 -26 -138 -14 0 5 28 35 63 65
56 50 63 54 75 39 6 -9 12 -31 12 -49z m396 -134 c22 0 24 -4 24 -42 0 -24 -3
-67 -6 -95 -8 -64 18 -59 -339 -73 -149 -5 -342 -19 -430 -30 -193 -24 -188
-24 -214 -2 -20 15 -21 21 -12 62 12 53 52 94 108 110 123 34 665 84 802 73
24 -1 54 -3 67 -3z m989 -26 c324 -34 442 -55 452 -82 7 -18 -14 -153 -26
-165 -4 -4 -55 0 -112 9 -158 25 -430 45 -879 64 -140 7 -273 15 -295 18 -49
9 -71 42 -61 93 9 49 26 69 66 79 53 13 695 1 855 -16z m-1997 -170 l3 -89
-128 -44 c-222 -77 -263 -100 -263 -146 0 -13 -5 -35 -11 -49 -10 -20 -15 -23
-30 -15 -28 15 -69 92 -69 129 0 54 79 122 230 197 144 72 241 113 255 109 6
-1 11 -43 13 -92z m2937 15 c182 -38 443 -101 580 -140 138 -38 273 -77 302
-85 68 -19 83 -41 83 -124 l1 -65 19 48 c27 71 37 80 79 72 20 -4 96 -29 169
-56 74 -27 142 -49 153 -49 10 0 22 -8 27 -17 11 -20 27 -243 18 -243 -3 0
-51 20 -107 45 -56 25 -141 62 -191 82 -49 19 -105 46 -125 60 -26 18 -43 22
-64 18 -20 -5 -74 9 -181 44 -239 78 -356 109 -474 126 -60 9 -134 24 -164 34
-30 11 -75 22 -100 26 -56 9 -358 80 -408 96 -78 25 -92 71 -47 160 25 49 26
50 63 43 20 -3 186 -37 367 -75z m-1265 -75 c213 -16 240 -20 240 -38 0 -28
-240 -236 -273 -236 -6 0 -21 -10 -34 -21 -29 -28 -42 -18 -85 63 -17 33 -71
101 -120 153 -48 51 -88 96 -88 100 0 4 37 4 83 1 45 -4 170 -13 277 -22z
m-980 1 c0 -2 -44 -38 -97 -80 -54 -41 -118 -91 -142 -110 -61 -49 -77 -46
-106 18 -13 29 -26 68 -27 87 -3 29 1 36 24 47 41 20 348 54 348 38z m552 -44
c117 -45 203 -129 229 -224 15 -57 5 -276 -16 -347 -10 -30 -37 -97 -61 -148
-36 -74 -59 -107 -118 -166 -106 -106 -224 -192 -356 -259 -130 -67 -243 -97
-371 -97 -64 0 -85 5 -135 30 -63 31 -135 96 -163 145 -13 24 -16 59 -16 170
0 167 13 214 110 413 67 136 133 222 241 314 104 89 219 157 313 184 73 21
271 12 343 -15z m1008 -10 c467 -75 1169 -247 1505 -369 392 -143 596 -235
619 -280 8 -16 42 -138 75 -270 82 -327 110 -408 218 -621 85 -168 103 -215
71 -183 -7 7 -19 12 -27 12 -9 0 -68 23 -131 51 -191 84 -258 106 -557 178
-457 111 -707 156 -1123 205 -303 36 -493 46 -902 46 l-357 0 -37 71 c-42 79
-158 210 -203 229 -16 6 -32 19 -36 27 -3 9 15 52 43 102 79 142 114 236 138
375 17 102 34 136 67 136 54 0 240 141 350 265 46 51 63 64 80 60 12 -3 105
-18 207 -34z m-1999 -84 c17 -32 48 -78 71 -102 l40 -44 -20 -28 c-118 -169
-183 -358 -199 -584 -6 -85 -8 -94 -41 -132 -19 -23 -55 -73 -80 -112 -25 -38
-46 -72 -48 -73 -1 -2 -53 -8 -116 -13 -62 -5 -154 -16 -205 -24 -101 -16
-367 -91 -480 -135 -67 -25 -73 -26 -73 -10 0 29 89 218 286 610 247 491 265
522 330 565 88 59 465 175 492 152 8 -6 27 -37 43 -70z m1094 -897 c51 -35
131 -123 183 -200 70 -105 60 -100 196 -100 159 0 621 -17 814 -30 335 -23
1086 -139 1164 -181 9 -5 29 -51 48 -110 17 -56 56 -158 86 -228 65 -147 320
-907 423 -1256 70 -237 140 -580 186 -905 34 -241 29 -730 -11 -1052 -28 -229
-115 -695 -155 -824 -31 -103 -123 -287 -157 -316 -24 -20 -49 -28 -120 -37
-152 -19 -423 -41 -514 -41 l-87 0 -72 127 c-231 407 -494 1000 -590 1333 -7
25 -16 49 -21 55 -4 5 -8 17 -8 26 0 10 -27 111 -60 226 -42 145 -89 350 -155
678 -98 493 -132 691 -189 1120 -42 313 -53 453 -66 865 -13 394 -21 490 -42
490 -14 0 -4 -1011 12 -1175 6 -66 39 -280 72 -475 33 -195 75 -447 93 -560
59 -354 155 -763 265 -1120 209 -679 367 -1048 630 -1470 l71 -115 -53 -7
c-29 -3 -179 -6 -333 -7 -401 -1 -414 2 -689 171 -278 170 -463 315 -676 528
-447 446 -745 968 -970 1696 -49 159 -69 323 -90 724 -13 249 -13 727 0 940
19 319 80 723 129 851 21 55 22 56 80 72 108 30 288 130 426 236 72 55 131
100 133 100 2 1 23 -12 47 -29z m-1139 -130 c49 -75 85 -110 145 -141 60 -30
167 -52 226 -45 l52 6 -6 -37 c-3 -21 -17 -83 -29 -138 -118 -508 -148 -772
-148 -1290 0 -363 10 -525 50 -795 30 -212 131 -564 231 -810 63 -156 203
-434 287 -568 179 -288 520 -674 795 -901 58 -47 137 -113 175 -146 39 -33
124 -95 188 -138 121 -80 143 -104 86 -92 -340 69 -686 157 -824 210 -225 87
-540 235 -729 343 -124 71 -412 262 -499 331 -248 199 -651 574 -712 663 -16
24 -53 74 -81 111 -117 153 -265 424 -313 573 -32 102 -70 275 -70 324 0 17
-4 39 -9 48 -9 17 -35 315 -34 382 0 19 1 127 2 240 1 279 17 515 47 700 30
183 102 477 148 604 48 133 126 314 145 336 23 29 144 56 371 86 287 37 300
42 383 156 38 51 57 69 68 62 5 -3 30 -37 55 -74z m-946 -256 c0 -8 -22 -66
-50 -127 -134 -302 -205 -584 -256 -1007 -27 -226 -25 -810 4 -1020 12 -85 24
-171 28 -190 9 -49 -9 -29 -36 40 -34 86 -98 347 -116 472 -21 153 -31 676
-15 830 23 216 94 551 161 763 38 119 65 149 186 213 89 47 94 48 94 26z
m4870 -215 c429 -104 467 -115 575 -168 85 -42 118 -67 220 -162 66 -61 143
-127 172 -146 49 -33 199 -93 234 -93 11 0 29 -29 54 -87 51 -119 133 -336
150 -398 7 -28 30 -104 50 -170 84 -275 157 -636 185 -917 8 -79 10 -244 7
-515 -4 -349 -8 -412 -26 -513 -56 -301 -187 -676 -310 -884 -88 -149 -242
-345 -459 -586 -142 -156 -210 -246 -298 -391 -89 -148 -214 -418 -305 -658
-60 -161 -62 -162 -179 -201 -110 -37 -123 -34 -115 20 3 14 9 66 16 115 19
155 148 763 183 862 21 60 34 62 139 25 107 -37 127 -39 127 -13 0 21 -70 53
-146 67 -67 12 -144 45 -155 66 -16 29 5 62 50 81 20 8 94 34 166 57 130 41
363 145 352 156 -3 3 -92 -18 -199 -46 -205 -55 -400 -102 -405 -96 -2 2 12
29 31 61 101 167 173 448 231 899 32 248 47 982 25 1196 -21 196 -128 693
-217 1000 -91 318 -293 907 -450 1315 -25 66 -48 139 -51 163 l-5 42 34 -6
c19 -3 162 -37 319 -75z m1698 -539 c28 -42 38 -78 25 -91 -11 -11 -106 32
-148 65 l-20 16 20 13 c29 17 78 36 90 33 6 -1 20 -18 33 -36z m-129 -88 c52
-26 115 -66 142 -90 97 -86 196 -336 274 -690 56 -250 89 -443 106 -617 17
-168 17 -601 0 -725 -54 -405 -212 -778 -482 -1140 -124 -167 -342 -410 -355
-397 -3 2 25 51 62 108 86 135 173 316 217 454 52 158 143 534 164 672 25 170
25 698 0 903 -55 439 -177 907 -371 1416 -25 67 -46 128 -46 137 0 22 24 26
115 21 70 -5 92 -11 174 -52z m-1534 -4063 c11 -17 -4 -57 -24 -64 -21 -6
-108 13 -116 26 -3 4 23 17 57 28 77 24 75 23 83 10z m-1712 -54 c105 -15 201
-30 212 -34 18 -7 14 -11 -25 -31 -81 -40 -102 -72 -55 -84 16 -4 70 9 157 38
129 44 133 45 159 28 34 -22 228 -245 258 -297 13 -22 51 -78 86 -125 127
-171 305 -493 341 -617 31 -108 2 -131 -102 -78 -96 49 -131 80 -231 204 -212
265 -571 623 -884 883 -93 77 -169 142 -169 145 0 3 14 3 30 -1 17 -3 117 -17
223 -31z m1507 -25 c159 -22 229 -37 247 -52 22 -18 15 -73 -42 -379 -101
-536 -135 -693 -154 -719 -19 -26 -86 -58 -98 -46 -8 7 -28 128 -84 511 -38
253 -42 299 -43 480 0 110 3 206 7 213 10 15 6 15 167 -8z m-270 -109 c0 -116
-8 -201 -20 -201 -4 0 -20 30 -35 68 -16 37 -43 98 -61 135 -45 94 -39 104 64
106 l52 1 0 -109z m-280 84 c7 -4 43 -71 81 -149 67 -138 190 -483 260 -729
30 -106 31 -109 13 -129 -23 -24 -99 -78 -112 -78 -5 0 -47 80 -93 177 -158
334 -349 633 -531 832 -32 35 -56 66 -54 68 6 7 307 21 368 18 31 -2 62 -6 68
-10z m-336 -999 c20 -8 36 -20 36 -27 0 -8 -32 -10 -124 -4 -68 4 -134 4 -145
0 -30 -9 -26 -31 7 -38 15 -3 36 -13 47 -21 19 -15 18 -15 -20 -15 -51 1 -109
21 -112 40 -4 23 30 59 72 75 49 18 186 12 239 -10z m1493 14 c72 -12 160 -47
147 -59 -27 -23 -149 -51 -227 -51 -102 0 -118 8 -97 47 17 31 74 73 99 73 9
0 44 -5 78 -10z m-717 -169 c0 -9 -6 -11 -17 -6 -41 17 -53 17 -59 1 -4 -9 1
-25 10 -35 9 -10 16 -21 16 -25 0 -4 -36 -45 -80 -92 -44 -46 -80 -89 -80 -95
0 -13 10 -7 85 51 87 68 140 95 230 120 44 12 131 42 195 67 126 50 195 58
259 31 l35 -14 -80 -45 c-43 -25 -115 -68 -159 -96 -212 -132 -267 -165 -340
-199 -83 -40 -150 -49 -181 -23 -34 28 -55 95 -57 182 -2 95 4 108 112 241
l55 69 28 -59 c15 -33 28 -65 28 -73z m-566 67 c17 -12 45 -33 61 -47 17 -14
41 -33 54 -42 22 -14 23 -18 12 -51 -6 -19 -22 -45 -35 -57 l-24 -22 -75 65
c-76 67 -137 135 -137 154 0 37 91 37 144 0z m-750 -33 c258 -36 580 -97 601
-113 12 -10 107 -99 211 -199 104 -100 214 -201 244 -225 30 -24 56 -51 58
-60 3 -16 -28 -32 -83 -43 -73 -14 -343 -23 -416 -14 -60 7 -97 6 -164 -6
-104 -18 -451 -21 -618 -5 -132 13 -343 55 -412 82 -27 11 -74 25 -102 32
-114 29 -253 143 -253 210 0 55 68 103 205 146 147 45 326 35 605 -35 160 -41
230 -64 296 -99 54 -29 94 -34 94 -12 0 22 -49 59 -148 110 -89 45 -117 66
-90 66 20 0 132 -34 243 -74 143 -51 200 -46 115 12 -116 78 -429 123 -880
126 -323 1 -355 -5 -435 -87 -91 -93 -100 -138 -51 -242 36 -77 95 -127 232
-197 110 -57 120 -64 96 -70 -32 -9 -143 6 -209 28 -166 56 -318 175 -346 271
-12 40 -13 61 -5 90 49 179 187 269 484 318 115 19 568 13 728 -10z m3334 0
c360 -52 594 -187 568 -328 -24 -130 -222 -237 -582 -317 -149 -33 -214 -23
-128 19 63 30 148 113 179 174 56 113 15 213 -109 267 -123 55 -537 29 -669
-42 -10 -5 -76 -16 -145 -24 -70 -8 -145 -20 -167 -25 -72 -20 -235 -109 -198
-109 5 0 47 16 93 34 196 80 328 89 169 12 -67 -33 -129 -80 -129 -98 0 -8 30
3 180 65 47 20 112 43 145 52 119 31 372 66 526 72 153 6 157 5 212 -20 73
-33 87 -59 59 -114 -29 -56 -83 -100 -177 -144 -162 -76 -320 -107 -650 -129
-697 -45 -1169 -40 -1275 15 -34 18 -53 47 -48 78 2 16 13 25 43 32 58 15 97
38 215 128 187 143 424 283 548 323 79 25 73 11 -12 -30 -43 -21 -83 -48 -95
-65 -11 -15 -64 -54 -118 -86 -177 -105 -363 -236 -363 -256 0 -20 34 -7 88
34 82 63 230 160 282 187 l45 22 -31 -33 c-16 -19 -63 -69 -102 -113 -40 -43
-72 -84 -72 -92 0 -32 39 -10 100 58 36 40 91 97 123 127 31 29 57 62 57 72 0
35 45 51 183 65 140 14 175 22 196 47 10 13 8 18 -18 31 -16 9 -37 16 -46 16
-21 0 -95 38 -95 49 0 5 7 11 15 15 9 3 15 0 15 -9 0 -20 13 -19 174 10 122
21 265 38 436 49 111 8 478 -4 578 -19z m-2340 -148 c10 -8 12 -31 7 -96 -9
-123 -10 -124 -44 -106 -43 22 -81 72 -81 106 0 34 33 105 52 112 16 6 48 -2
66 -16z m1212 13 c0 -5 -6 -10 -14 -10 -7 0 -28 -3 -45 -6 -19 -4 -31 -2 -31
4 0 11 25 18 68 21 12 0 22 -3 22 -9z m-3970 -181 c0 -6 -9 -13 -20 -16 -25
-7 -25 -14 1 -36 25 -22 21 -49 -16 -108 -30 -46 -61 -68 -109 -76 -36 -6 -36
-5 -36 29 0 19 -5 49 -11 67 -15 44 -5 72 35 100 62 41 156 66 156 40z m83
-260 c12 -6 29 -20 37 -32 39 -64 39 -68 -4 -22 l-46 50 7 -45 c10 -70 9 -85
-7 -85 -17 0 -65 108 -57 129 7 19 36 21 70 5z M1488 10785 c-3 -6 -9 -28 -13
-50 l-6 -40 16 28 c15 26 18 84 3 62z M1402 10718 c-31 -82 -53 -161 -46 -167
9 -9 22 19 54 114 33 99 34 105 21 105 -5 0 -18 -24 -29 -52z M1443 10630 c-7
-27 -8 -49 -3 -54 11 -11 23 32 18 70 -3 26 -4 25 -15 -16z M1059 10305 c-13
-20 -59 -194 -59 -222 0 -51 28 -4 51 85 18 73 24 162 8 137z M969 10154 c-20
-23 -85 -161 -95 -200 -7 -28 -7 -29 13 -11 25 22 106 191 101 213 -3 15 -5
14 -19 -2z M907 9891 c-102 -41 -171 -87 -247 -167 l-45 -47 90 48 c254 135
241 130 329 129 71 0 91 -5 161 -37 95 -43 110 -33 41 29 -52 47 -137 84 -194
84 -20 0 -81 -18 -135 -39z M4707 9903 c-14 -13 -6 -24 28 -39 37 -15 145 -19
145 -5 0 5 -30 16 -67 25 -38 9 -75 19 -84 22 -8 2 -18 1 -22 -3z M4996 9861
c-4 -5 -2 -12 3 -15 5 -4 12 -2 15 3 4 5 2 12 -3 15 -5 4 -12 2 -15 -3z M3040
9016 c0 -35 103 -121 137 -114 14 3 6 16 -43 66 -58 59 -94 78 -94 48z M3650
8118 c-60 -25 -90 -46 -148 -104 -89 -89 -123 -157 -130 -259 -4 -68 -3 -72
29 -114 48 -62 110 -94 175 -89 61 5 158 50 237 109 99 74 196 243 182 317
-10 51 -85 127 -151 152 -73 27 -106 25 -194 -12z m210 -48 c50 -26 70 -64 70
-135 0 -157 -191 -335 -363 -339 -102 -2 -147 43 -149 152 -2 47 4 68 32 120
41 77 123 163 188 196 62 33 164 36 222 6z M5305 8046 c-39 -17 -93 -78 -118
-134 -24 -55 -19 -102 18 -178 38 -77 83 -106 179 -112 93 -6 137 13 177 77
25 39 29 54 29 121 0 68 -3 82 -32 130 -55 91 -167 133 -253 96z m151 -71
c136 -104 117 -295 -30 -295 -48 0 -116 38 -147 82 -46 64 -20 187 49 231 35
23 84 16 128 -18z M6745 7715 c-149 -52 -154 -320 -8 -381 42 -18 135 -18 178
0 45 19 65 61 65 135 0 114 -64 221 -149 250 -41 13 -36 13 -86 -4z m95 -57
c56 -38 114 -180 94 -231 -9 -25 -87 -51 -128 -43 -66 12 -116 91 -116 182 0
29 76 114 102 114 8 0 30 -10 48 -22z M2572 8019 c-34 -16 -73 -45 -88 -62
-33 -39 -83 -143 -90 -189 -7 -43 16 -101 50 -123 24 -16 29 -16 93 4 91 27
157 71 193 127 63 100 66 181 9 240 -43 44 -84 45 -167 3z m117 -55 c15 -19
21 -41 21 -78 0 -82 -51 -149 -132 -175 -32 -10 -43 -10 -74 5 -56 27 -62 52
-30 118 27 55 79 107 141 139 41 22 50 21 74 -9z M5990 724 c0 -3 48 -56 106
-117 58 -62 118 -129 131 -149 26 -39 53 -50 53 -22 0 9 -57 74 -127 146 -117
119 -163 159 -163 142z M5732 11095 c0 -16 2 -22 5 -12 2 9 2 23 0 30 -3 6 -5
-1 -5 -18z M6578 11093 c-24 -27 -70 -123 -65 -136 5 -15 74 90 83 126 7 31 3
34 -18 10z M6518 10902 c-41 -46 -73 -101 -63 -110 3 -4 9 -2 13 4 4 5 27 35
50 67 52 67 52 96 0 39z M6056 10831 c-24 -27 -30 -88 -13 -135 17 -48 40 -66
65 -50 28 18 26 45 -4 69 -19 15 -27 31 -27 53 0 64 35 53 71 -22 30 -61 38
-53 18 16 -24 83 -71 112 -110 69z M6469 10723 c-18 -21 -58 -66 -89 -101
l-57 -62 -44 20 c-44 20 -99 27 -99 13 0 -5 20 -20 44 -34 95 -58 115 -208 38
-292 -40 -44 -145 -75 -181 -53 -15 10 -14 39 4 62 8 10 15 29 15 42 1 68
-115 -26 -141 -114 -16 -55 -18 -209 -3 -224 7 -7 20 20 38 78 30 98 41 120
53 109 4 -5 -1 -47 -11 -95 -33 -152 -45 -235 -45 -309 -1 -133 21 -88 79 158
32 134 61 205 90 219 8 4 32 15 53 24 40 17 121 87 140 120 6 12 14 73 17 136
7 134 16 157 95 251 52 60 66 89 46 89 -5 0 -24 -17 -42 -37z M5870 10645
c-11 -13 -7 -15 23 -15 41 0 67 8 67 21 0 15 -77 10 -90 -6z M5919 10575 c-39
-26 -57 -55 -35 -55 19 0 104 79 86 80 -9 0 -32 -11 -51 -25z M7590 10372 c0
-24 35 -52 64 -52 11 0 75 -27 141 -59 259 -127 494 -333 657 -576 105 -156
273 -511 308 -650 24 -99 54 -326 47 -356 -5 -21 -23 -33 -99 -64 -151 -62
-417 -198 -513 -263 -173 -116 -346 -289 -456 -456 -58 -86 -67 -106 -51 -106
4 0 99 88 211 195 275 265 375 344 576 460 123 71 333 175 352 175 12 0 14
-14 11 -75 -2 -41 0 -75 3 -75 4 0 24 22 45 50 47 62 99 104 173 141 82 41
170 51 352 39 83 -6 154 -8 157 -5 7 7 -55 32 -131 51 -40 10 -64 21 -60 27 7
12 153 4 260 -14 59 -11 74 -10 88 1 9 8 12 17 7 22 -5 5 -79 16 -163 25 -85
9 -164 20 -177 24 l-23 9 21 28 c69 88 214 172 340 197 150 30 245 87 447 267
129 116 206 168 245 168 26 0 32 -6 55 -56 32 -71 27 -101 -36 -191 -57 -80
-100 -116 -181 -149 -79 -32 -105 -32 -65 1 16 13 26 27 22 31 -9 9 -81 -12
-132 -39 l-40 -21 39 -6 c47 -6 52 -16 61 -143 l7 -89 29 28 28 27 34 -25 c18
-14 57 -47 87 -73 68 -59 133 -89 232 -110 135 -28 325 -110 398 -172 41 -36
84 -97 78 -113 -2 -5 -34 17 -71 49 -116 100 -247 157 -395 171 -64 6 -88 12
-106 29 -12 11 -29 21 -37 21 -8 0 -63 -32 -124 -70 -106 -68 -150 -89 -162
-77 -3 3 11 13 31 21 48 20 100 99 91 141 -13 68 -103 125 -208 133 -130 9
-235 -37 -389 -170 -102 -89 -168 -138 -195 -144 -13 -4 -23 -14 -23 -23 0 -9
-12 -33 -26 -54 -47 -69 -18 -62 64 16 81 77 102 90 102 62 0 -31 25 -13 114
80 111 116 194 166 308 188 94 17 188 -25 188 -86 0 -31 -16 -44 -125 -107
-49 -28 -99 -60 -110 -71 -18 -18 -18 -19 -1 -32 17 -12 16 -16 -16 -57 -50
-65 -162 -156 -243 -196 -55 -27 -91 -37 -168 -46 -129 -14 -329 1 -447 36
-47 13 -87 23 -89 20 -10 -10 47 -56 97 -80 75 -35 170 -54 282 -54 95 0 296
20 400 40 38 7 78 7 134 0 65 -9 94 -8 167 6 106 20 177 12 360 -41 170 -49
185 -48 277 22 45 34 45 34 122 27 128 -11 180 21 239 146 38 79 39 120 5 188
-50 100 -150 157 -428 242 -179 54 -247 83 -310 133 -50 40 -148 159 -139 168
5 5 40 20 78 34 98 37 146 67 198 125 81 90 98 191 48 295 -35 75 -59 96 -113
102 -37 4 -51 0 -103 -35 -33 -22 -118 -94 -190 -161 -232 -218 -271 -242
-482 -295 -187 -47 -251 -72 -294 -115 -34 -33 -59 -90 -59 -133 0 -28 -41
-47 -121 -58 -92 -11 -147 -30 -222 -76 -34 -21 -62 -33 -68 -27 -4 4 -13 80
-19 168 -6 87 -18 193 -26 234 -23 109 -109 361 -159 466 -203 422 -668 802
-1017 832 -64 6 -68 5 -68 -15z m2994 -1818 c79 -16 205 -65 257 -99 55 -36
104 -119 102 -173 -2 -58 -16 -72 -70 -72 -71 0 -120 32 -148 94 -44 100 -160
168 -324 193 -133 20 -141 22 -141 33 0 13 38 32 80 41 44 9 153 2 244 -17z
m-354 -100 c190 -21 255 -38 319 -82 73 -50 131 -124 131 -167 0 -37 -33 -85
-58 -85 -9 0 -73 23 -141 50 -156 63 -218 73 -401 65 -80 -3 -158 -2 -173 2
l-28 8 52 74 c67 95 121 151 145 151 10 0 80 -7 154 -16z M6400 10280 c0 -11
42 -31 49 -24 2 2 -2 10 -9 19 -14 17 -40 20 -40 5z M6490 10245 c0 -3 18 -12
40 -21 77 -31 75 -52 -35 -271 -86 -173 -127 -225 -201 -258 -29 -13 -79 -41
-111 -63 -32 -21 -71 -46 -88 -55 -41 -21 -77 -56 -70 -68 4 -5 16 -9 27 -9
34 0 188 80 256 133 66 52 181 178 231 254 24 36 64 145 99 273 5 17 16 26 32
28 43 5 90 23 85 32 -3 4 -53 11 -112 15 -60 3 -118 8 -130 11 -13 2 -23 2
-23 -1z M6068 9659 c-10 -5 -66 -13 -125 -17 -101 -7 -108 -8 -105 -27 6 -32
19 -39 76 -38 62 2 143 33 177 69 24 25 11 33 -23 13z M5563 9318 c-4 -7 -13
-22 -18 -33 -6 -11 -26 -22 -47 -27 -70 -14 -327 -162 -367 -211 -28 -35 -20
-31 265 129 33 19 99 47 147 64 76 26 101 30 194 30 67 0 103 4 98 9 -11 11
-200 51 -238 51 -14 0 -29 -6 -34 -12z M10103 9162 c-40 -20 -73 -40 -73 -44
0 -7 82 19 133 42 15 7 27 19 27 27 0 18 -5 17 -87 -25z M9349 8450 c-13 -10
-19 -19 -12 -20 18 0 63 22 63 32 0 14 -27 9 -51 -12z M7721 8054 c-63 -43
-151 -125 -151 -143 0 -8 5 -9 19 -2 26 14 205 161 209 172 7 19 -26 7 -77
-27z M2891 2534 c-127 -34 -243 -129 -280 -229 -25 -67 -28 -169 -6 -241 18
-61 76 -152 144 -227 91 -101 105 -164 52 -231 -63 -79 -65 -157 -6 -202 65
-49 55 -91 -23 -96 -47 -3 -66 -20 -35 -32 10 -4 47 -10 83 -13 53 -4 68 -2
79 11 12 14 11 19 -3 34 -15 17 -14 22 13 64 48 75 81 84 144 41 56 -39 62
-56 33 -90 -41 -49 -112 -79 -226 -97 -57 -9 -109 -21 -115 -27 -29 -29 103
-41 156 -13 17 8 47 14 67 12 31 -2 40 -9 57 -39 19 -36 19 -38 0 -78 -28 -63
-35 -65 -88 -20 -26 22 -47 38 -47 34 0 -14 31 -78 50 -102 25 -32 17 -39 -50
-48 -68 -9 -75 -16 -56 -54 9 -17 21 -31 27 -31 27 0 121 79 151 127 l33 53
58 0 c65 0 88 -9 134 -53 l33 -31 61 20 c33 10 60 24 60 29 0 6 -24 13 -53 18
-29 4 -63 15 -76 23 -23 15 -24 20 -19 82 9 87 15 92 99 80 44 -7 77 -7 95 0
27 9 26 10 -52 46 -80 37 -145 80 -145 96 0 14 130 111 140 105 5 -3 26 -34
46 -67 38 -66 39 -63 -13 -94 -30 -19 -6 -29 67 -29 54 0 74 4 97 21 42 31 42
54 1 54 -49 0 -77 10 -83 29 -3 9 4 48 15 86 30 103 27 120 -24 171 -48 48
-93 63 -62 22 76 -106 80 -121 27 -98 -16 6 -39 9 -50 5 -23 -7 -45 27 -55 85
-10 67 -75 95 -137 60 l-40 -22 -42 28 c-48 32 -132 41 -132 14 0 -10 12 -16
33 -18 39 -4 40 -11 3 -63 -17 -22 -37 -62 -46 -89 -15 -47 -36 -67 -57 -54
-5 3 -7 12 -4 20 8 20 -3 44 -20 44 -11 0 -54 -67 -54 -85 0 -3 11 -10 24 -15
18 -7 23 -14 19 -30 -10 -37 -21 -31 -48 24 l-27 55 26 56 c14 31 28 72 32 93
9 49 21 72 39 72 33 0 9 31 -103 136 -145 137 -177 189 -176 284 0 84 33 148
129 247 66 69 117 97 100 56 -4 -10 -17 -43 -28 -74 l-21 -56 26 -71 25 -72
-44 -26 c-44 -25 -103 -95 -103 -121 0 -21 24 -15 50 12 13 14 27 25 31 25 4
0 10 -19 14 -42 9 -53 43 -145 57 -154 5 -3 24 8 42 25 l32 31 -4 -35 c-5 -41
4 -85 18 -85 5 0 18 17 29 38 27 53 68 90 112 102 22 6 39 13 39 16 0 3 -11
21 -24 41 -14 19 -22 41 -19 49 2 7 30 30 61 51 79 52 82 56 42 48 -64 -13
-120 -53 -141 -101 -16 -36 -25 -44 -46 -44 -14 0 -48 -14 -75 -31 -46 -30
-51 -31 -66 -16 -10 11 -17 39 -20 82 -5 79 7 101 82 149 29 18 86 65 125 103
l73 70 40 -34 c36 -30 58 -35 58 -14 0 4 -18 35 -41 69 -43 64 -44 82 -3 82
36 0 29 15 -18 38 -96 45 -179 52 -277 26z m398 -930 c12 -15 21 -30 21 -34 0
-7 -187 -3 -227 6 -64 13 24 53 119 53 60 1 68 -1 87 -25z m146 -114 c3 -5 1
-10 -4 -10 -6 0 -11 5 -11 10 0 6 2 10 4 10 3 0 8 -4 11 -10z m-238 -182 c11
-13 26 -33 32 -45 10 -19 8 -25 -14 -39 -33 -21 -112 -22 -132 -1 -14 13 -10
20 33 61 26 25 50 46 54 46 4 0 16 -10 27 -22z m-52 -218 c-3 -5 -19 -10 -36
-10 -16 0 -29 5 -29 10 0 6 16 10 36 10 21 0 33 -4 29 -10z M3728 2296 c-74
-26 -128 -68 -249 -191 -114 -115 -127 -126 -157 -123 -46 4 -44 21 6 38 23 8
41 19 39 25 -2 5 -31 12 -64 15 -41 3 -68 11 -83 25 -22 19 -22 19 -41 -5 -26
-34 -21 -75 8 -75 13 0 28 -8 35 -16 7 -8 25 -23 40 -32 34 -21 62 -74 77
-145 6 -30 17 -63 23 -75 11 -20 13 -16 19 35 3 32 12 65 19 73 12 15 240 155
307 189 l32 16 56 -81 c55 -78 102 -119 138 -119 32 0 33 -26 2 -102 -5 -13
-2 -18 9 -18 20 0 46 50 46 89 0 16 4 32 9 35 11 7 31 -46 31 -80 0 -17 6 -24
20 -24 26 0 26 21 0 94 l-19 56 22 37 c29 51 29 130 -2 200 -26 58 -102 136
-156 159 -42 17 -118 18 -167 0z m181 -81 c24 -25 25 -27 8 -39 -26 -20 -134
-38 -186 -32 -64 9 -97 -9 -93 -51 3 -28 -3 -36 -60 -76 -75 -53 -148 -91
-148 -78 0 14 151 209 193 249 50 49 98 63 186 58 64 -4 78 -8 100 -31z M3190
1891 c-11 -21 -27 -201 -17 -201 7 0 47 169 47 199 0 26 -16 27 -30 2z M2913
1665 c-3 -9 -3 -19 1 -22 9 -10 59 10 64 25 6 18 -57 16 -65 -3z M2915 860
c-18 -35 -19 -60 -3 -95 14 -31 0 -67 -34 -89 -13 -8 -63 -19 -111 -24 -93
-10 -116 -22 -143 -74 -13 -24 -13 -32 1 -58 8 -16 15 -38 15 -50 0 -18 -6
-20 -60 -20 -33 0 -75 -6 -93 -14 -65 -27 -136 -135 -137 -207 l0 -37 -197 -4
c-109 -3 -206 -8 -215 -12 -14 -6 -18 -3 -18 12 0 29 -25 45 -57 38 -16 -4
-32 -6 -38 -6 -5 1 -31 2 -57 4 -52 3 -49 7 -63 -89 -8 -51 10 -26 19 27 8 41
35 63 66 53 22 -7 24 -21 11 -77 -5 -21 -5 -38 -1 -38 5 0 11 18 15 41 12 68
61 100 89 57 8 -13 6 -22 -8 -37 -12 -13 -14 -21 -7 -21 8 0 10 -7 6 -20 -4
-11 -2 -20 4 -20 6 0 11 8 11 19 0 15 14 21 87 34 47 9 90 14 95 11 4 -3 8
-16 8 -29 0 -29 12 -33 70 -24 82 13 490 23 490 11 0 -5 22 -33 48 -61 48 -51
48 -51 110 -51 34 0 113 11 175 24 177 38 212 40 287 17 36 -11 93 -23 127
-27 55 -6 62 -4 72 14 14 26 14 112 0 149 -15 41 -59 83 -86 83 -34 0 -28 -19
18 -66 37 -38 41 -46 35 -77 -14 -73 -58 -71 -136 6 -53 53 -80 104 -90 176
-5 31 -16 90 -25 131 -17 79 -14 123 10 150 17 19 45 94 45 121 0 28 -16 23
-29 -9 -6 -15 -22 -41 -36 -57 -21 -26 -25 -28 -38 -15 -8 8 -24 41 -36 72
-25 61 -45 86 -56 69 -3 -6 14 -73 38 -148 81 -250 87 -359 27 -453 -40 -63
-90 -89 -167 -90 -43 0 -53 3 -55 18 -3 36 4 66 23 103 23 46 24 59 4 59 -22
0 -48 -46 -66 -119 -16 -65 -30 -80 -58 -62 -18 12 -19 88 -1 131 10 25 11 33
1 39 -9 6 0 18 28 40 48 38 51 49 14 56 -84 17 -145 74 -158 147 -9 50 0 73
41 99 61 37 95 12 110 -83 l7 -40 18 47 c19 51 56 98 70 89 15 -9 10 -72 -12
-157 -20 -81 -19 -132 4 -124 7 2 30 36 53 76 l41 73 -18 74 c-9 40 -22 124
-28 186 -14 135 -18 158 -31 158 -5 0 -16 -13 -25 -30z m-190 -530 c5 -7 -33
-72 -80 -138 -6 -8 -99 13 -111 25 -20 20 -19 25 26 84 42 56 41 75 -4 63 -34
-8 -86 -77 -86 -113 0 -14 -5 -33 -10 -41 -9 -13 -13 -12 -30 9 -37 44 -19 80
78 156 l55 44 78 -39 c43 -22 80 -44 84 -50z m13 -141 c-6 -16 -12 -28 -14
-26 -5 5 13 57 20 57 3 0 0 -14 -6 -31z M406 194 c-10 -47 -15 -88 -12 -91 5
-6 9 7 30 110 7 37 10 67 6 67 -4 0 -15 -39 -24 -86z M720 270 c0 -5 5 -10 10
-10 6 0 10 5 10 10 0 6 -4 10 -10 10 -5 0 -10 -4 -10 -10z M1266 194 c-10 -47
-15 -88 -12 -91 5 -6 9 7 30 110 7 37 10 67 6 67 -4 0 -15 -39 -24 -86z M1346
269 c-3 -8 -10 -41 -16 -74 -6 -33 -14 -68 -16 -77 -3 -10 -1 -18 3 -18 10 0
46 171 38 178 -2 3 -7 -1 -9 -9z M109 241 c-38 -38 -41 -101 -7 -125 29 -20
79 -20 104 0 18 14 18 15 1 10 -53 -17 -69 -17 -92 -2 -69 45 21 166 94 126
12 -6 21 -7 21 -1 0 12 -25 21 -62 21 -19 0 -39 -10 -59 -29z M1110 189 c-28
-45 -49 -83 -47 -85 2 -3 12 7 21 21 14 21 24 25 66 25 43 0 50 -3 50 -19 0
-11 5 -23 10 -26 6 -3 10 -3 10 1 0 20 -44 164 -51 164 -4 0 -30 -37 -59 -81z
m75 4 l7 -33 -42 0 c-42 0 -42 0 -28 23 8 12 21 32 29 44 15 25 22 18 34 -34z
M260 210 c-22 -22 -27 -79 -8 -98 19 -19 66 -14 88 8 22 22 27 79 8 98 -19 19
-66 14 -88 -8z m71 0 c25 -14 25 -54 -1 -80 -23 -23 -33 -24 -61 -10 -25 14
-25 54 1 80 23 23 33 24 61 10z M470 210 c-22 -22 -27 -79 -8 -98 19 -19 66
-14 88 8 22 22 27 79 8 98 -19 19 -66 14 -88 -8z m71 0 c25 -14 25 -54 -1 -80
-23 -23 -33 -24 -61 -10 -25 14 -25 54 1 80 23 23 33 24 61 10z M616 204 c-3
-16 -8 -47 -11 -69 -8 -51 10 -26 19 27 5 27 15 42 34 53 18 10 22 14 10 15
-9 0 -20 -5 -24 -11 -5 -8 -9 -8 -14 1 -5 8 -10 3 -14 -16z M717 223 c-2 -4
-7 -26 -11 -48 -4 -22 -9 -48 -12 -57 -3 -10 -1 -18 4 -18 4 0 14 28 20 62 11
58 10 81 -1 61z M775 220 c-1 -3 -5 -23 -9 -45 -4 -22 -9 -48 -12 -57 -3 -10
-1 -18 4 -18 5 0 13 20 17 45 7 53 44 87 74 68 17 -11 19 -28 8 -80 -4 -18 -3
-33 2 -33 16 0 24 99 11 115 -12 14 -87 18 -95 5z M940 210 c-22 -22 -27 -79
-8 -98 15 -15 61 -15 76 0 9 9 12 8 12 -5 0 -9 -12 -24 -26 -34 -21 -13 -32
-15 -55 -6 -16 6 -29 8 -29 3 0 -24 81 -27 102 -2 18 19 50 162 37 162 -5 0
-9 -5 -9 -10 0 -7 -6 -7 -19 0 -30 16 -59 12 -81 -10z m71 0 c29 -16 25 -65
-6 -86 -56 -37 -103 28 -55 76 23 23 33 24 61 10z M1441 211 c-23 -23 -28 -80
-9 -99 19 -19 88 -13 88 9 0 5 -11 4 -24 -2 -54 -25 -89 38 -46 81 23 23 33
24 62 9 16 -9 19 -8 16 3 -8 22 -64 22 -87 -1z M1570 210 c-22 -22 -27 -79 -8
-98 19 -19 66 -14 88 8 22 22 27 79 8 98 -19 19 -66 14 -88 -8z m71 0 c25 -14
25 -54 -1 -80 -23 -23 -33 -24 -61 -10 -25 14 -25 54 1 80 23 23 33 24 61 10z
M1360 110 c0 -5 5 -10 10 -10 6 0 10 5 10 10 0 6 -4 10 -10 10 -5 0 -10 -4
-10 -10z"/>
</g>
</svg>
