<svg version="1.0" xmlns="http://www.w3.org/2000/svg"
  viewBox="0 0 1200.140702 1062.783033"
 preserveAspectRatio="xMidYMid meet">
<metadata>
For more coloring pages, please visit ColoringAll.com
</metadata>
<g transform="translate(-0.635434,1062.974591) scale(0.100000,-0.100000)"
fill="#000000" stroke="none">
<path d="M4425 10610 c-144 -38 -300 -115 -423 -207 l-74 -55 -62 60 c-70 68
-121 88 -198 79 -112 -14 -218 -97 -258 -203 -35 -96 -24 -141 45 -184 29 -18
40 -20 71 -11 43 12 50 9 142 -57 35 -25 69 -57 75 -71 6 -16 12 -133 14 -301
l4 -275 -183 -135 c-732 -542 -1074 -849 -1256 -1129 -55 -83 -152 -269 -184
-348 -13 -35 -24 -46 -60 -60 -79 -31 -311 -150 -418 -215 -177 -107 -477
-344 -606 -479 -215 -225 -421 -533 -533 -799 -158 -376 -212 -694 -197 -1165
8 -219 17 -310 52 -486 77 -399 210 -735 427 -1086 99 -159 116 -193 102 -193
-4 0 -33 19 -66 42 -58 42 -64 43 -147 46 -78 3 -91 1 -122 -20 -89 -60 -140
-190 -147 -374 l-5 -122 -71 -53 c-223 -169 -340 -344 -341 -509 0 -125 48
-209 137 -235 79 -23 295 -38 486 -32 209 6 298 25 493 108 186 79 199 78 598
-59 206 -71 331 -104 497 -131 66 -10 131 -25 144 -31 13 -7 63 -44 110 -81
48 -38 104 -74 125 -81 37 -13 39 -16 106 -173 37 -88 68 -166 68 -173 0 -14
-52 -39 -100 -49 -54 -10 -74 3 -140 93 -82 111 -203 240 -259 276 -35 22 -57
28 -98 28 l-53 0 -93 -95 c-51 -52 -97 -95 -103 -95 -6 0 -39 18 -75 40 -91
57 -205 114 -268 135 -106 35 -222 2 -322 -92 -62 -58 -73 -92 -67 -212 7
-125 31 -187 208 -536 143 -282 205 -393 301 -536 87 -130 140 -175 229 -194
19 -4 103 -29 186 -56 218 -69 294 -78 765 -91 472 -13 770 -3 853 28 144 55
257 244 244 408 -10 114 -74 192 -257 311 l-99 64 43 76 c51 89 130 321 148
430 l12 76 45 -8 c25 -5 270 -8 545 -7 612 1 682 9 1063 120 85 24 161 44 169
44 24 0 120 -98 226 -230 180 -224 201 -241 333 -248 79 -4 84 -3 184 42 56
25 104 46 106 46 9 0 4 -52 -7 -73 -6 -12 -28 -39 -48 -60 l-36 -38 -5 -200
-5 -201 -50 -16 c-48 -16 -51 -19 -69 -75 -16 -51 -17 -66 -7 -112 15 -68 67
-151 159 -259 92 -107 130 -137 185 -143 123 -14 373 166 458 330 33 65 34 67
17 99 -21 42 -31 132 -19 181 6 26 28 59 69 100 32 34 62 72 66 85 4 12 15 22
26 22 10 0 76 -39 147 -86 143 -96 376 -216 498 -256 91 -30 212 -48 326 -48
42 0 97 -3 122 -6 l45 -6 31 -94 c17 -51 31 -100 31 -108 0 -24 132 -154 173
-171 86 -36 139 -11 282 134 49 50 95 91 102 91 7 0 36 -15 65 -34 201 -128
447 -203 723 -220 156 -10 279 6 445 59 l145 46 93 -21 c154 -33 250 -24 295
29 13 16 32 60 42 98 39 156 30 143 125 178 170 63 241 117 289 219 38 79 51
147 51 254 0 235 -99 436 -362 735 -91 103 -96 112 -117 190 -42 151 -141 386
-204 480 -64 96 -225 266 -300 316 -63 43 -99 48 -168 22 -153 -58 -239 -220
-268 -505 -12 -116 -28 -161 -73 -207 -23 -22 -39 -29 -69 -29 -79 0 -168 -66
-244 -181 -25 -38 -50 -69 -55 -69 -5 0 -36 33 -68 73 -66 80 -114 118 -181
142 -59 21 -156 19 -206 -4 -61 -28 -130 -112 -185 -225 -61 -127 -74 -141
-128 -127 -59 16 -147 79 -231 165 l-73 76 5 58 c3 31 11 82 17 112 7 34 8
104 5 180 l-7 125 48 99 c78 160 71 242 -25 329 -85 77 -169 105 -408 136 -84
11 -167 27 -185 37 -100 50 -258 235 -258 301 0 11 40 82 89 158 108 171 220
374 271 492 53 124 76 215 99 391 22 166 38 213 95 281 54 64 70 100 70 156 0
61 -30 195 -49 221 -13 18 -14 18 -37 -3 -14 -13 -32 -23 -41 -23 -43 0 -151
-136 -182 -230 -24 -74 -15 -109 50 -179 57 -61 62 -77 44 -130 -14 -39 -66
-67 -259 -139 -152 -57 -255 -81 -272 -64 -6 6 -27 41 -47 78 -36 66 -63 95
-77 81 -4 -3 8 -48 26 -98 32 -88 33 -92 15 -105 -10 -8 -25 -14 -32 -14 -57
0 -297 331 -278 382 6 16 15 21 108 62 59 26 167 122 167 149 0 17 28 43 36
34 3 -3 -3 -23 -15 -44 -11 -21 -25 -53 -32 -72 -7 -18 -32 -60 -56 -92 -69
-94 -56 -104 46 -32 111 79 271 246 330 346 29 48 57 87 62 87 23 0 6 -90 -36
-194 -46 -112 -52 -136 -36 -136 21 0 84 114 140 255 18 43 37 85 43 92 20 24
28 2 21 -60 l-6 -62 22 19 c11 11 26 37 33 58 6 21 17 43 25 49 7 6 60 17 118
23 88 10 108 16 120 33 8 12 41 36 72 53 32 18 91 56 133 84 41 28 90 58 107
65 30 12 36 11 78 -13 55 -32 71 -58 50 -79 -23 -24 -93 -46 -195 -62 -78 -12
-99 -19 -117 -39 -33 -38 -47 -122 -32 -195 20 -103 56 -141 132 -141 45 0 96
-34 113 -75 7 -19 30 -94 50 -167 20 -73 45 -147 55 -165 29 -47 85 -92 159
-127 56 -27 76 -31 148 -31 l83 0 35 37 c43 47 43 71 3 208 -16 58 -33 134
-36 169 l-6 65 29 -21 c16 -12 49 -42 74 -68 85 -88 111 -104 201 -121 56 -10
108 -28 154 -53 39 -21 104 -51 145 -66 67 -26 87 -40 191 -140 138 -133 186
-160 279 -160 72 1 127 23 170 70 21 23 25 36 25 89 0 54 -7 76 -42 147 -23
46 -67 114 -97 151 -31 36 -56 68 -56 71 0 3 24 43 53 90 103 163 136 320 137
647 0 69 3 134 6 145 4 18 23 24 132 42 262 45 542 142 857 298 240 119 331
181 518 352 71 65 158 140 193 166 108 81 124 142 105 405 -13 176 -34 255
-108 392 -76 141 -162 258 -283 383 -264 275 -551 455 -984 616 -212 80 -570
171 -670 171 -48 0 -72 26 -84 92 -6 29 -17 93 -26 141 -44 237 -162 371 -363
408 -107 20 -234 -4 -431 -82 -40 -16 -88 -29 -107 -29 -30 0 -38 6 -61 43
-53 83 -120 163 -267 316 -82 86 -164 174 -183 197 l-34 41 15 49 c24 79 20
111 -19 150 -49 49 -79 46 -157 -16 -68 -53 -98 -60 -169 -40 -19 5 -75 14
-125 20 -101 11 -115 21 -115 81 0 97 -121 144 -261 103 -104 -31 -219 -131
-219 -190 0 -14 21 -46 54 -81 l54 -59 -57 -70 c-78 -94 -115 -124 -154 -124
-59 0 -78 19 -112 110 -37 98 -52 110 -135 110 -89 0 -92 -7 -42 -100 24 -44
40 -80 35 -80 -13 0 -73 39 -164 106 -48 35 -95 64 -105 64 -24 0 -325 -78
-333 -86 -9 -9 45 -51 197 -154 204 -139 292 -202 292 -212 0 -19 -44 -2 -262
108 -129 64 -240 114 -252 112 -14 -2 -29 -19 -44 -51 -26 -54 -26 -55 -122
-7 -63 31 -157 63 -245 82 -82 18 -540 18 -652 0 -46 -7 -136 -26 -201 -42
-64 -16 -135 -30 -157 -32 l-40 -3 3 44 c4 69 17 85 60 75 73 -15 148 -11 179
12 71 53 143 219 143 332 0 79 -39 202 -81 254 -16 21 -33 58 -38 84 -5 25
-18 59 -30 75 -12 16 -33 46 -47 67 l-26 37 8 150 c11 207 9 259 -16 311 -26
52 -119 140 -194 183 -105 61 -300 79 -441 41z m289 -40 c124 -18 218 -84 266
-187 26 -55 38 -223 21 -276 -18 -53 -42 -48 -134 24 -76 61 -91 79 -63 79 7
0 19 6 25 14 21 26 -51 37 -270 43 -202 6 -279 1 -279 -17 0 -9 13 -11 185
-30 55 -7 133 -23 173 -36 79 -26 207 -87 217 -104 4 -7 -37 -10 -123 -10
-103 0 -132 -3 -142 -15 -16 -19 -11 -21 117 -34 127 -13 218 -47 303 -110 69
-52 138 -137 124 -151 -5 -5 -28 -4 -54 2 -66 15 -322 16 -327 1 -4 -12 4 -14
146 -32 116 -15 207 -58 272 -129 l49 -54 0 -116 c0 -135 -8 -172 -53 -239
-35 -52 -101 -93 -150 -93 -39 0 -98 58 -90 88 7 28 19 37 78 59 83 31 60 60
-32 40 -41 -8 -42 3 -3 46 31 36 39 67 17 67 -7 0 -44 -20 -81 -45 -68 -44
-126 -59 -141 -35 -12 19 -45 11 -45 -10 0 -23 53 -60 87 -60 48 0 53 -8 53
-85 0 -104 -18 -222 -41 -267 -46 -90 -156 -167 -277 -194 -39 -9 -74 -20 -77
-24 -3 -4 2 -27 10 -50 28 -78 15 -216 -49 -534 -83 -411 -211 -738 -404
-1031 -147 -224 -249 -333 -333 -355 -22 -6 -39 -17 -39 -25 0 -45 117 -9 216
67 36 27 68 47 72 44 3 -4 -4 -30 -16 -59 -26 -61 -28 -87 -8 -87 24 0 45 39
77 145 36 115 63 172 129 270 211 314 305 603 393 1215 19 129 41 251 49 271
11 26 31 44 69 66 30 17 105 79 167 137 62 58 131 115 153 126 104 53 399 108
629 117 263 10 429 -20 615 -111 90 -44 123 -67 184 -127 85 -84 151 -180 188
-276 22 -57 27 -85 27 -168 l1 -100 -59 -105 c-80 -145 -197 -318 -380 -565
-293 -396 -371 -566 -392 -855 -11 -149 42 -344 137 -502 27 -45 48 -89 47
-98 -8 -37 -128 -5 -128 35 0 7 -9 32 -19 56 -11 24 -26 85 -35 136 -21 125
-45 185 -79 201 -39 19 -42 49 -12 133 56 153 66 200 63 284 -2 64 -8 86 -26
112 l-22 32 19 50 c11 27 45 99 75 158 50 100 58 111 103 135 81 44 133 87
133 108 0 28 -13 25 -97 -20 -40 -22 -73 -37 -73 -33 0 5 7 44 15 88 19 105
19 229 0 292 -19 64 -85 129 -114 113 -29 -15 -69 -67 -102 -132 -25 -50 -176
-409 -241 -574 l-20 -51 -186 -102 c-234 -128 -876 -450 -1042 -524 -187 -82
-485 -167 -680 -193 -110 -14 -357 -18 -425 -6 -57 10 -58 35 -1 57 43 16 95
59 84 70 -2 3 -34 -7 -69 -21 -60 -24 -72 -26 -184 -22 -139 5 -199 25 -258
86 -49 50 -119 176 -157 281 -17 47 -36 91 -42 98 -19 24 -30 2 -23 -48 14
-103 -49 -41 -132 128 -41 85 -46 102 -55 205 -13 145 -3 447 17 513 22 76 97
217 189 355 217 326 493 585 1172 1103 l231 176 7 258 c8 313 22 493 42 553
33 101 126 188 293 274 214 110 362 142 545 116z m-926 -174 c15 -8 40 -28 56
-44 l28 -30 -41 -89 c-22 -49 -47 -107 -54 -129 -17 -49 -45 -55 -90 -21 -38
29 -102 52 -170 62 -26 4 -55 14 -62 22 -48 47 29 174 135 222 54 25 158 28
198 7z m3972 -911 c27 -24 27 -89 0 -133 -31 -50 -96 -75 -195 -76 -86 0 -115
10 -141 50 -16 23 -15 26 10 62 31 45 81 80 149 104 64 23 148 20 177 -7z
m580 -115 c36 -36 40 -102 7 -108 -24 -5 -65 23 -79 54 -10 21 -8 28 12 49 28
30 34 31 60 5z m-246 -85 c125 -33 326 -166 326 -216 0 -41 -165 -191 -320
-291 -227 -148 -540 -258 -731 -258 -40 0 -51 4 -68 27 -23 28 -30 50 -34 98
-2 25 2 30 18 28 141 -16 155 -16 175 2 26 24 60 116 60 165 0 34 -8 49 -65
112 -36 39 -65 75 -65 78 0 4 37 46 83 93 68 71 90 88 127 97 25 6 92 26 150
45 88 29 120 34 195 35 50 0 117 -7 149 -15z m-1050 -107 c15 -6 36 -31 48
-57 23 -47 25 -70 17 -196 -4 -70 -4 -70 42 -135 59 -83 63 -97 39 -110 -24
-13 -128 3 -171 25 -15 8 -38 34 -52 57 -14 24 -37 54 -52 68 -37 35 -265 191
-355 242 l-74 42 44 19 c26 12 78 22 126 25 79 5 85 3 141 -28 32 -18 85 -52
118 -75 73 -51 91 -58 116 -45 26 15 24 41 -11 110 -16 33 -30 62 -30 65 0 9
28 6 54 -7z m1476 -203 c59 19 -20 -84 -93 -121 -54 -28 -101 -70 -125 -112
-12 -23 -18 -43 -13 -46 5 -4 31 11 58 31 26 20 84 59 128 86 44 27 94 63 112
80 l32 30 10 -26 c6 -14 28 -55 50 -89 53 -85 72 -146 78 -249 l6 -86 -63 -32
c-63 -31 -110 -40 -110 -21 0 6 9 10 19 10 28 0 36 18 17 39 -21 23 -20 62 4
141 22 73 25 100 9 100 -38 0 -109 -307 -80 -349 21 -31 76 -12 331 117 140
71 280 138 310 148 45 16 82 19 202 18 140 -2 149 -3 193 -28 74 -44 110 -81
149 -156 48 -90 66 -177 66 -318 0 -110 -1 -116 -36 -185 -44 -89 -64 -117
-134 -191 -90 -95 -201 -163 -347 -212 -62 -21 -104 -27 -203 -31 -245 -10
-377 34 -513 169 -86 86 -119 144 -142 255 -22 104 -20 117 23 153 52 43 237
132 367 175 113 38 139 51 129 66 -8 14 -47 11 -119 -12 -161 -49 -83 10 100
76 126 45 165 64 165 81 0 24 -17 24 -87 3 -89 -27 -211 -92 -309 -164 -120
-89 -227 -156 -234 -148 -4 4 -13 37 -20 73 -26 137 -105 240 -185 240 -39 0
-30 -16 29 -54 68 -44 96 -89 109 -180 13 -90 1 -129 -45 -145 -38 -14 -278
-14 -311 -2 -27 11 -42 41 -33 69 4 9 29 29 56 44 55 31 64 54 24 64 -87 22
-226 -59 -318 -185 -67 -91 -36 -97 63 -11 39 33 74 60 78 60 17 0 45 -61 39
-85 -3 -13 -38 -52 -77 -87 -39 -35 -100 -98 -135 -140 -36 -43 -69 -78 -74
-78 -5 0 -32 20 -60 45 -53 47 -68 53 -88 33 -24 -24 -13 -67 29 -113 l40 -44
-23 -40 c-18 -32 -21 -44 -12 -58 33 -54 315 -58 481 -6 29 9 55 14 58 11 3
-2 -27 -67 -65 -144 -98 -196 -147 -386 -126 -496 15 -81 120 -78 341 12 28
11 36 9 105 -30 163 -92 194 -163 114 -267 -37 -49 -81 -73 -134 -73 -81 0
-237 29 -333 61 -101 35 -136 34 -117 -1 18 -33 109 -78 205 -101 105 -25 289
-31 346 -11 65 23 139 120 139 184 0 62 -94 192 -184 254 l-28 20 26 52 c14
28 26 56 26 62 0 20 -36 9 -100 -29 -36 -22 -68 -37 -72 -35 -18 12 45 155
113 256 55 81 148 188 163 188 7 0 61 -71 119 -158 58 -87 125 -179 148 -205
l42 -48 -18 -62 c-56 -190 -143 -347 -254 -457 -70 -70 -107 -97 -201 -147
-246 -133 -363 -167 -604 -179 -138 -7 -170 -14 -150 -34 38 -38 366 -38 509
0 151 39 266 91 395 179 41 28 78 51 81 51 4 0 9 -18 13 -39 3 -22 22 -70 41
-107 19 -37 35 -71 35 -77 0 -21 -156 -221 -267 -342 -161 -175 -393 -385
-426 -385 -5 0 -27 -13 -50 -28 -23 -16 -60 -41 -82 -56 -22 -14 -64 -44 -94
-66 -30 -22 -61 -40 -70 -40 -10 0 -6 -9 14 -30 37 -39 24 -55 -35 -45 -37 6
-45 13 -84 73 -71 110 -91 121 -291 167 -94 22 -156 29 -288 34 l-169 6 -34
40 c-19 22 -57 65 -84 96 -28 31 -50 61 -50 67 0 6 29 20 65 32 36 12 65 26
65 31 0 22 -90 24 -160 3 -22 -6 -23 -5 -12 8 17 21 125 69 186 83 28 6 51 16
53 22 8 22 -139 53 -252 53 -62 0 -77 -4 -120 -31 l-48 -30 -64 63 c-36 35
-73 75 -84 90 l-20 27 24 48 c13 26 30 66 37 88 23 69 136 200 165 189 15 -6
16 -15 9 -68 -5 -34 -9 -99 -9 -146 0 -139 44 -185 175 -185 127 1 235 86 317
251 40 82 47 104 51 172 4 76 4 79 -23 100 -40 32 -100 45 -186 40 -52 -3 -89
-11 -118 -26 -48 -26 -69 -28 -77 -8 -8 20 10 50 69 115 29 31 83 96 120 145
38 48 73 86 80 83 6 -2 37 -52 70 -112 102 -189 183 -295 228 -295 32 0 21 27
-46 112 -36 45 -90 131 -120 191 l-55 108 0 99 0 99 45 69 c52 81 83 157 95
230 7 41 18 63 51 100 52 59 96 150 110 230 12 68 7 62 236 266 206 183 382
395 519 626 115 193 191 272 177 183 -6 -35 -5 -37 10 -24 10 7 49 57 89 110
40 53 92 118 118 144 l45 48 13 -31 c10 -24 17 -30 32 -25z m-1232 -11 c52
-36 47 -77 -16 -137 -38 -36 -59 -31 -95 25 -39 61 -36 75 26 103 62 29 57 29
85 9z m131 -40 c69 -88 40 -184 -56 -184 -58 0 -64 19 -22 71 23 30 33 54 37
90 2 27 8 49 13 49 4 0 17 -12 28 -26z m-792 -101 c78 -42 154 -86 170 -99 27
-23 28 -24 9 -39 -11 -8 -29 -15 -41 -15 -24 0 -57 -34 -99 -98 -15 -24 -33
-42 -39 -39 -7 2 -33 39 -59 83 -26 43 -81 122 -122 174 -76 95 -86 116 -65
137 15 15 62 -5 246 -104z m312 -167 c16 -63 14 -100 -10 -222 -58 -302 -195
-588 -462 -969 -140 -199 -151 -215 -144 -222 12 -11 89 32 143 80 28 26 72
77 98 115 26 38 62 87 81 108 l34 39 1 -86 c0 -167 -35 -265 -146 -404 -84
-105 -93 -131 -37 -106 21 10 28 9 34 -1 21 -32 -1 -120 -59 -233 -35 -70 -63
-98 -114 -115 -21 -6 -38 -15 -38 -19 0 -4 12 -17 26 -30 14 -12 32 -38 40
-58 31 -74 -9 -191 -79 -228 l-37 -20 0 -67 0 -66 -51 -43 -50 -42 34 -36 c37
-39 87 -104 87 -114 0 -13 -70 -47 -97 -47 -39 0 -130 46 -150 77 -14 21 -14
29 -3 64 11 32 11 44 2 57 -60 85 -120 218 -154 340 -19 67 -22 104 -22 277 0
226 18 338 74 450 30 62 49 88 259 360 339 438 512 720 636 1035 81 206 83
209 104 126z m1907 -42 c21 -35 25 -50 17 -63 -17 -28 -41 -25 -47 6 -23 119
-15 134 30 57z m-1740 -3 c72 -47 203 -179 189 -189 -6 -4 -36 -27 -68 -51
l-57 -43 -49 36 c-27 20 -63 52 -80 72 -28 31 -31 41 -31 102 0 79 8 112 25
112 6 0 38 -17 71 -39z m894 20 c0 -15 -99 -161 -191 -281 -120 -158 -393
-420 -628 -605 l-64 -50 47 -3 c57 -4 64 -17 38 -69 -22 -42 -134 -170 -196
-224 l-39 -34 8 79 c6 72 6 78 -12 74 -12 -2 -21 -17 -28 -46 -10 -40 -27 -61
-48 -62 -5 0 -5 53 -2 118 8 121 28 194 64 227 24 21 34 8 56 -70 20 -69 28
-81 43 -63 15 19 52 132 59 183 5 37 3 45 -10 45 -9 0 -18 -8 -22 -19 -3 -10
-14 -26 -25 -36 -18 -17 -19 -16 -26 10 -10 42 3 173 24 237 32 96 81 165 190
266 56 53 111 111 122 129 16 28 25 33 57 33 77 0 378 88 513 149 49 22 70 26
70 12z m-1225 -87 c-15 -25 -40 -54 -56 -63 -29 -16 -38 -44 -18 -57 14 -8 4
-60 -18 -93 -15 -23 -16 -24 -29 -6 -35 47 1 143 87 235 59 63 75 55 34 -16z
m260 -164 c3 -5 -4 -19 -15 -30 -21 -21 -40 -19 -40 4 0 27 42 48 55 26z m75
-78 c0 -26 -57 -102 -75 -102 -24 0 -28 25 -10 63 23 49 85 77 85 39z m-136
-27 c-4 -8 -8 -15 -10 -15 -2 0 -4 7 -4 15 0 8 4 15 10 15 5 0 7 -7 4 -15z
m20 -112 c9 -23 -20 -117 -43 -137 -46 -42 -51 19 -9 116 20 47 40 54 52 21z
m1267 -123 c76 -15 94 -36 118 -140 31 -129 30 -135 -26 -164 -79 -39 -235
-85 -422 -122 -97 -19 -183 -36 -191 -37 -9 -1 -14 7 -15 23 0 22 -5 25 -42
28 -27 2 -43 9 -47 19 -12 31 10 38 84 25 88 -15 167 -15 209 -1 62 22 34 34
-102 42 -38 3 -74 10 -79 15 -25 25 123 178 252 260 91 59 155 72 261 52z
m1859 -52 c631 -103 1370 -552 1676 -1021 83 -126 140 -245 126 -259 -9 -9
-12 -9 -12 0 0 7 -7 12 -15 12 -20 0 -19 -8 15 -135 32 -116 40 -238 20 -291
-20 -50 -70 -102 -161 -164 -83 -57 -90 -64 -74 -76 10 -7 23 -15 29 -18 24
-10 -155 -149 -323 -251 -225 -137 -515 -263 -909 -395 -255 -86 -307 -94
-377 -56 -28 14 -53 22 -58 17 -5 -5 5 -51 22 -105 43 -134 57 -267 42 -400
-19 -170 -47 -254 -143 -426 -54 -98 -55 -107 -16 -123 105 -44 197 -261 149
-350 -35 -66 -198 -60 -280 9 -89 77 -201 254 -201 318 0 20 8 40 20 51 28 26
26 35 -25 85 -38 37 -47 42 -56 30 -5 -8 -7 -28 -5 -45 21 -128 28 -207 19
-216 -6 -6 -26 -4 -57 5 -78 24 -158 95 -201 180 -26 52 -25 66 6 66 36 0 19
30 -37 66 -30 19 -71 38 -91 41 -41 7 -41 9 14 -74 43 -62 54 -130 28 -157
-21 -20 -47 -14 -95 23 -96 75 -196 243 -207 345 -6 56 -6 57 -24 39 -30 -30
-42 -123 -36 -288 4 -112 11 -166 26 -213 25 -77 27 -135 5 -153 -11 -9 -39
-13 -82 -11 -121 3 -201 61 -273 195 -28 52 -34 76 -39 152 -8 112 5 326 25
413 28 121 44 145 137 205 46 29 111 79 144 110 68 63 115 87 169 87 l35 0 0
-126 c0 -145 6 -160 87 -213 55 -37 123 -42 181 -14 51 24 181 155 230 232 68
104 85 161 86 277 1 131 -1 134 -108 134 -88 0 -186 -23 -282 -65 -72 -32 -88
-32 -80 -2 17 56 35 149 45 221 6 43 20 98 30 122 l20 43 -35 81 -34 81 49 79
c185 298 522 652 896 942 61 47 118 95 129 107 41 45 -31 37 -139 -16 -92 -46
-263 -185 -495 -402 -69 -65 -130 -120 -136 -124 -7 -4 -31 0 -55 9 -24 8
-118 26 -208 39 -90 14 -166 27 -168 29 -3 3 -1 11 4 19 13 22 157 153 286
260 64 54 117 102 117 107 0 32 -87 -18 -255 -148 -74 -58 -134 -97 -139 -92
-7 8 -24 178 -25 268 -1 30 1 32 37 32 52 0 82 10 82 27 0 23 -31 63 -62 79
-27 14 -29 19 -24 52 3 20 8 59 12 86 9 64 28 82 100 90 123 15 303 89 420
172 124 88 230 237 265 373 l13 52 61 -6 c33 -3 116 -15 185 -27z m-3196 -58
c20 -22 36 -48 36 -58 0 -10 -26 -44 -58 -77 -69 -72 -83 -110 -89 -255 -4
-80 -11 -125 -34 -191 -16 -47 -34 -110 -40 -140 -18 -85 -99 -350 -121 -392
-10 -21 -24 -76 -30 -122 -10 -80 -12 -85 -34 -85 -22 0 -24 4 -24 51 0 34 12
82 34 143 21 54 39 128 46 179 11 91 23 131 64 215 31 62 74 189 82 243 10 62
-4 126 -37 163 -16 19 -29 42 -29 53 0 16 142 268 170 301 17 19 25 15 64 -28z
m-1117 -65 c15 -31 16 -49 5 -168 -24 -270 -93 -443 -352 -877 -135 -227 -151
-260 -126 -260 17 0 54 45 165 201 111 157 175 228 192 212 35 -34 -40 -225
-175 -447 -92 -151 -87 -174 19 -86 33 28 63 50 68 50 45 0 -24 -209 -82 -249
-15 -10 -48 -25 -75 -34 -112 -38 -256 -195 -256 -279 0 -13 -7 -34 -16 -47
-20 -27 -88 -60 -126 -61 -24 0 -27 5 -37 50 -22 103 -11 409 19 520 5 19 55
112 111 205 123 204 282 526 454 920 133 303 172 385 187 385 4 0 16 -16 25
-35z m2643 -184 c0 -10 -80 -83 -117 -108 -21 -14 -26 -14 -48 1 -32 21 -24
41 28 68 79 40 137 57 137 39z m-6294 -17 c-3 -9 -6 -18 -6 -20 0 -3 -4 -3
-10 1 -11 7 -2 35 12 35 6 0 7 -7 4 -16z m6434 -79 c41 -42 91 -85 110 -94 19
-10 91 -31 160 -47 74 -17 131 -35 142 -46 35 -35 17 -191 -23 -203 -41 -13
-87 -7 -135 19 -26 14 -50 23 -53 21 -8 -8 41 -55 107 -102 l62 -45 0 -91 c-1
-126 -21 -227 -77 -388 -26 -76 -45 -141 -41 -144 4 -4 17 0 30 9 12 9 26 16
30 16 21 0 26 -52 14 -151 -8 -57 -11 -107 -9 -111 2 -5 22 -8 43 -8 21 0 45
-7 53 -15 27 -26 34 -215 9 -215 -4 0 -18 21 -32 48 -14 26 -29 46 -35 45 -5
-2 -11 -21 -13 -43 -2 -22 -7 -40 -12 -40 -12 0 -98 70 -139 113 -53 56 -15
77 64 37 48 -25 55 -25 55 -2 0 21 -48 100 -74 121 -15 13 -18 12 -23 -7 -3
-12 -11 -22 -18 -22 -35 0 -139 170 -118 191 6 6 30 5 62 -1 87 -16 84 -18 79
53 -6 64 -24 117 -41 117 -5 0 -7 -23 -5 -52 4 -62 -9 -70 -52 -31 l-31 28 56
134 c47 112 102 278 128 391 5 21 -3 37 -39 80 -48 58 -107 150 -168 263 -52
94 -91 137 -126 137 -56 0 -153 -93 -247 -237 -29 -46 -55 -83 -58 -83 -3 0
-16 24 -29 54 -26 59 -48 76 -95 76 -16 0 -33 4 -36 10 -6 10 52 149 91 217
25 44 48 49 59 13 3 -10 17 -30 30 -44 44 -47 145 -30 198 33 15 18 27 43 27
55 0 53 20 43 120 -59z m-6499 4 c9 -85 9 -258 0 -288 -5 -19 -29 -33 -122
-70 -223 -91 -467 -239 -664 -402 -217 -180 -507 -494 -624 -674 -58 -90 -142
-275 -223 -490 -87 -234 -90 -183 -11 159 25 108 26 109 43 86 l17 -23 7 29
c12 47 135 351 185 459 49 103 148 258 255 400 126 167 408 434 630 597 153
113 463 293 491 284 6 -1 13 -31 16 -67z m4804 -245 c25 -10 59 -14 97 -12 46
2 58 0 58 -12 0 -46 -127 -250 -155 -250 -8 0 -17 11 -21 25 -4 15 -16 28 -30
31 -23 6 -24 10 -24 94 0 87 11 140 29 140 4 0 26 -7 46 -16z m1243 -66 c27
-60 45 -144 38 -179 -10 -49 -43 -89 -75 -89 -36 0 -108 52 -123 88 -12 31 0
103 28 167 l17 40 11 -42 c16 -61 31 -72 45 -32 6 17 11 42 11 54 0 22 8 35
21 35 4 0 16 -19 27 -42z m-5988 -158 c38 -122 66 -170 174 -300 52 -63 119
-157 147 -209 95 -171 167 -218 353 -232 61 -4 115 -8 121 -8 27 -2 -26 -26
-180 -79 -232 -81 -309 -113 -455 -187 -266 -136 -489 -303 -751 -565 -310
-310 -489 -574 -594 -880 -40 -118 -61 -146 -119 -161 -73 -20 -69 -18 -56
-34 7 -8 22 -15 34 -15 56 0 156 -52 156 -80 0 -5 -27 -41 -60 -81 -66 -78
-76 -115 -36 -125 32 -8 183 11 386 48 193 35 421 48 512 29 88 -19 171 -65
254 -144 l76 -72 -27 -75 c-48 -132 -90 -182 -257 -306 -123 -91 -235 -158
-303 -180 -27 -10 -155 -66 -282 -126 -214 -99 -285 -125 -268 -97 4 5 50 44
103 86 137 108 310 284 367 373 70 110 108 146 210 195 162 78 212 145 108
145 -53 0 -71 -10 -161 -87 -34 -28 -88 -66 -122 -84 -44 -24 -62 -39 -66 -58
-12 -56 -28 -83 -75 -125 -40 -36 -64 -47 -144 -70 -180 -50 -287 -123 -210
-142 19 -5 51 6 120 39 52 26 95 42 95 37 0 -19 -117 -125 -168 -153 l-51 -28
-21 23 c-33 35 -292 566 -355 726 -133 341 -194 689 -182 1052 6 202 29 325
84 465 44 113 214 447 274 540 132 203 542 616 747 752 157 104 527 286 571
281 21 -3 28 -14 51 -88z m6894 44 c22 -8 20 -21 -5 -35 -25 -13 -45 1 -36 25
7 17 16 19 41 10z m-3734 -79 c0 -39 -114 -250 -130 -240 -4 3 -13 34 -19 70
-15 86 -4 108 74 152 68 37 75 39 75 18z m1566 -65 c13 0 25 -4 28 -8 14 -24
-83 -172 -113 -172 -15 0 -13 21 4 44 8 11 15 30 15 43 0 33 -36 31 -44 -2 -4
-14 -13 -25 -21 -25 -28 0 -20 68 20 178 4 10 18 3 47 -22 23 -20 52 -36 64
-36z m1121 -20 c18 -10 47 -23 65 -28 l33 -9 -44 -12 c-66 -19 -121 10 -105
54 8 19 12 19 51 -5z m-2897 -59 c14 -27 13 -86 -3 -99 -7 -6 -37 -14 -67 -18
-30 -3 -81 -15 -113 -26 -32 -11 -61 -18 -64 -15 -21 22 74 107 172 153 61 29
62 29 75 5z m1635 -121 l29 -31 -19 -36 c-11 -19 -36 -54 -57 -77 -31 -34 -39
-39 -48 -26 -21 29 4 140 42 188 15 18 21 15 53 -18z m-1535 -18 c0 -13 -12
-22 -22 -16 -10 6 -1 24 13 24 5 0 9 -4 9 -8z m-66 -30 c3 -5 -29 -78 -70
-163 -41 -85 -80 -171 -86 -191 -6 -21 -15 -38 -19 -38 -18 0 -89 229 -89 286
0 48 6 57 48 78 57 29 203 48 216 28z m3876 -33 c0 -34 -16 -69 -30 -69 -13 0
-13 51 0 85 13 33 30 24 30 -16z m-4225 -69 c12 -47 44 -148 72 -225 62 -171
70 -222 49 -305 -21 -82 -20 -107 9 -228 14 -57 25 -110 25 -119 0 -9 -18 -35
-40 -59 -66 -72 -48 -99 28 -43 l42 31 35 -75 c19 -42 35 -82 35 -89 0 -7 -19
-38 -41 -68 -50 -65 -93 -155 -85 -175 14 -37 47 -10 111 88 20 32 46 62 57
68 21 12 24 10 99 -56 25 -22 59 -51 76 -65 30 -26 33 -34 79 -239 6 -27 13
-27 -137 4 -79 16 -92 16 -160 2 -169 -34 -334 -120 -392 -204 -17 -26 -44
-61 -59 -77 l-27 -31 -50 55 c-290 314 -506 766 -610 1277 -46 224 -56 198
109 277 l141 67 77 -25 c160 -50 191 -45 282 42 65 63 77 88 56 117 -13 18
-15 16 -39 -21 -48 -75 -99 -107 -195 -120 -57 -7 -73 6 -53 44 12 23 167 105
231 122 29 8 55 24 75 47 19 22 50 41 85 53 87 30 90 28 115 -70z m1699 -112
c9 -10 27 -18 41 -18 25 0 59 -27 80 -63 9 -16 22 -17 159 -7 82 6 162 8 177
5 35 -8 43 -32 34 -100 -19 -158 -190 -345 -314 -345 -51 0 -89 17 -98 44 -4
12 -6 85 -5 164 l3 143 -49 54 c-46 50 -57 75 -79 170 -3 17 -1 16 16 -5 11
-14 27 -33 35 -42z m2662 -3 c132 -33 244 -76 265 -101 9 -11 3 -23 -28 -57
-21 -23 -70 -87 -107 -142 -160 -232 -153 -227 -175 -123 -8 38 -28 80 -57
122 -30 44 -44 76 -44 98 0 18 -11 78 -24 133 -13 55 -21 103 -19 108 5 8 2 8
189 -38z m-502 -53 c-14 -22 -28 -21 -32 3 -5 21 19 38 33 24 6 -6 6 -15 -1
-27z m826 -3 c0 -5 -4 -9 -10 -9 -5 0 -10 7 -10 16 0 8 5 12 10 9 6 -3 10 -10
10 -16z m-5530 -54 c-20 -19 -130 -67 -130 -56 0 7 125 71 140 71 2 0 -2 -7
-10 -15z m1764 -197 c14 -54 37 -121 51 -149 15 -28 25 -52 23 -54 -16 -13
-49 -24 -61 -19 -9 3 -18 17 -22 32 -4 15 -28 55 -55 90 l-48 63 36 73 c20 41
40 71 44 67 3 -3 18 -50 32 -103z m-1916 74 c7 -5 21 -62 32 -133 11 -68 28
-160 39 -204 57 -231 168 -538 226 -625 l34 -50 -27 -14 c-15 -7 -112 -48
-216 -90 -375 -152 -656 -284 -886 -414 -179 -100 -419 -262 -496 -333 -120
-111 -100 -104 -185 -68 -171 73 -153 71 -609 79 -381 6 -421 9 -490 28 -41
12 -110 27 -152 33 -55 8 -78 15 -78 25 0 46 163 364 269 524 128 195 368 456
586 638 266 222 606 407 978 534 l152 51 125 -4 c257 -8 562 -2 615 14 62 18
67 19 83 9z m1796 -225 c44 -42 54 -78 30 -115 -32 -49 -88 -112 -136 -153
l-47 -40 -63 16 c-129 32 -148 49 -127 113 37 115 154 212 256 212 45 0 56 -4
87 -33z m3161 -31 c60 -59 120 -149 131 -192 4 -16 18 -54 31 -84 l24 -55 -31
-27 c-55 -50 -72 -35 -85 82 -11 94 -27 139 -78 217 -24 39 -50 80 -56 92 -21
38 8 24 64 -33z m-24 -134 c27 -54 26 -54 -100 -122 -93 -49 -111 -53 -111
-24 0 28 -35 9 -52 -28 -20 -42 -54 -66 -71 -49 -7 7 -5 18 6 35 25 37 131
162 199 234 l60 64 24 -33 c13 -18 34 -53 45 -77z m-2765 80 c6 -4 21 -29 33
-55 26 -54 93 -111 152 -128 31 -10 52 -8 124 10 72 18 90 19 103 9 25 -21 72
-90 67 -98 -3 -5 -38 0 -77 11 -98 25 -251 25 -404 -1 -148 -25 -186 -39 -279
-102 -41 -27 -79 -47 -85 -43 -21 13 -70 110 -70 139 0 56 175 194 304 238 84
28 113 33 132 20z m3160 -78 c19 -44 30 -179 16 -188 -5 -3 -26 16 -46 44 -46
64 -61 65 -51 3 l7 -48 -22 20 c-26 24 -110 148 -110 164 0 20 36 12 60 -14
32 -34 47 -31 64 9 14 35 44 59 59 49 5 -3 15 -21 23 -39z m-2520 -116 c-31
-34 -56 -67 -56 -74 0 -8 28 -46 63 -85 158 -182 149 -168 145 -231 -3 -32 -1
-58 3 -58 5 0 34 16 66 35 80 48 94 44 41 -12 -53 -58 -90 -112 -149 -218
l-44 -80 -3 68 c-2 57 -6 68 -19 65 -18 -3 -28 -33 -38 -120 -13 -111 -29 -72
-69 162 -25 150 -39 200 -55 200 -18 0 -53 -70 -47 -93 3 -12 15 -65 26 -117
11 -52 34 -124 50 -159 33 -70 103 -172 144 -210 30 -29 33 -19 15 53 -6 24
-9 56 -7 72 l3 29 23 -42 c33 -63 48 -56 55 24 8 85 39 148 116 238 91 108
151 155 208 162 95 11 176 -34 242 -134 30 -44 31 -51 31 -148 0 -177 -23
-239 -123 -335 -78 -75 -111 -85 -287 -85 -130 0 -155 -2 -155 -15 0 -8 15
-24 34 -35 85 -49 131 -123 131 -206 0 -45 -52 -135 -93 -159 -30 -19 -33 -19
-44 -3 -7 9 -13 28 -13 41 0 13 -17 56 -37 96 -38 73 -130 174 -260 284 -37
31 -63 61 -63 73 0 28 16 24 72 -21 28 -22 57 -40 64 -40 27 0 13 34 -31 76
-62 60 -119 87 -166 81 -52 -7 -101 -43 -97 -71 3 -22 11 -23 75 -10 29 5 33
3 39 -20 9 -38 -2 -96 -24 -126 -35 -46 -76 -63 -160 -63 -91 0 -139 20 -195
82 -51 57 -63 110 -43 185 18 62 16 72 -9 62 -42 -16 -44 -135 -5 -286 42
-161 23 -347 -44 -434 -14 -19 -49 -48 -78 -65 -72 -42 -86 -51 -138 -88 -71
-49 -172 -83 -285 -94 -144 -14 -252 -1 -335 41 -151 76 -266 173 -342 289
-71 109 -90 178 -90 336 -1 153 8 180 79 256 109 118 219 163 403 163 130 1
131 1 346 -90 83 -35 157 -64 163 -64 7 0 1 14 -13 31 -14 17 -26 35 -26 40 0
20 33 7 62 -23 l29 -31 22 22 c21 20 22 31 22 159 0 111 -4 143 -18 169 -17
33 -35 49 -43 40 -3 -3 2 -32 10 -65 23 -88 21 -99 -19 -116 -23 -10 -45 -32
-66 -66 -29 -48 -54 -70 -79 -70 -16 0 -100 80 -114 109 -21 41 -26 120 -16
251 11 134 24 196 47 223 18 19 76 23 118 7 l26 -10 -34 -33 c-81 -76 -144
-291 -121 -411 9 -52 28 -39 35 25 8 71 29 110 86 156 114 92 113 90 113 192
0 78 3 94 20 111 35 35 53 21 70 -55 14 -64 51 -103 160 -167 123 -73 153
-100 190 -170 39 -75 58 -98 78 -98 9 0 50 18 93 40 83 43 119 50 119 24 0 -9
7 -14 18 -12 28 5 30 127 2 180 -19 36 -19 46 -9 101 6 34 22 88 35 119 13 32
24 66 24 76 0 10 15 40 34 66 21 29 36 65 40 93 8 63 19 73 78 73 l50 0 -56
-62z m-1374 -74 c40 -30 85 -58 101 -61 61 -12 43 -26 -66 -49 -84 -17 -151
-18 -164 -1 -8 10 -43 102 -43 113 0 7 76 54 86 54 7 0 45 -25 86 -56z m142
25 c36 -28 33 -43 -6 -35 -36 7 -58 23 -58 42 0 21 34 17 64 -7z m3390 6 c0
-5 -22 -24 -49 -42 -68 -45 -128 -106 -187 -192 -64 -93 -85 -148 -104 -275
-8 -55 -18 -111 -21 -123 -4 -17 -37 -39 -125 -84 l-121 -61 7 80 c7 74 5 84
-18 131 -32 63 -32 67 2 74 82 17 330 247 375 349 27 61 72 108 132 138 41 21
111 24 109 5z m-2380 -64 c28 -11 11 -18 -62 -26 -34 -4 -65 -11 -68 -16 -7
-12 39 -29 77 -29 40 0 46 -20 26 -96 -21 -77 -22 -168 -2 -223 l14 -42 -37
-25 c-92 -62 -145 -94 -149 -91 -2 2 -13 37 -24 78 -41 150 -150 315 -224 339
-44 14 -112 87 -96 103 20 20 163 35 346 35 99 0 189 -3 199 -7z m2700 -7 c22
-21 30 -58 31 -128 0 -38 -4 -61 -12 -63 -31 -11 -72 121 -57 182 7 29 16 31
38 9z m-3575 -22 c6 -11 6 -24 1 -33 -8 -12 -12 -12 -26 3 -17 17 -13 48 5 48
6 0 15 -8 20 -18z m3308 -28 l46 -45 -6 -84 -6 -84 40 -35 c21 -20 47 -36 58
-36 10 0 43 13 73 29 l54 29 37 -39 c21 -21 45 -39 54 -39 9 0 53 18 97 40 85
41 167 60 269 60 67 0 66 3 39 -131 -20 -101 -57 -167 -152 -277 -89 -102
-139 -137 -197 -136 -56 1 -94 29 -110 80 -7 21 -16 91 -19 156 -7 135 0 128
-127 128 -88 0 -69 11 -183 -111 -23 -25 -62 -56 -87 -69 l-45 -24 -48 19
c-27 10 -68 37 -91 60 -38 37 -43 48 -43 87 0 123 125 362 222 424 35 23 71
43 76 44 2 0 24 -21 49 -46z m-443 5 c19 -22 24 -37 20 -55 -10 -38 23 -30 43
11 15 32 33 47 33 27 0 -32 -226 -252 -259 -252 -6 0 -11 10 -11 23 0 12 -9
41 -20 64 l-19 43 25 30 c29 34 51 37 95 14 28 -14 33 -14 55 1 30 20 32 62 3
99 -31 39 2 35 35 -5z m616 -14 c0 -23 42 -140 53 -147 17 -10 -19 -45 -59
-58 -43 -14 -70 0 -79 40 -8 39 10 127 36 169 16 27 22 31 34 21 8 -7 15 -18
15 -25z m-680 -34 c0 -11 -4 -23 -10 -26 -6 -4 -10 5 -10 19 0 14 5 26 10 26
6 0 10 -9 10 -19z m-2425 -63 c73 -49 173 -143 163 -153 -12 -13 -182 89 -220
131 -18 21 -36 79 -22 73 5 -2 41 -25 79 -51z m-561 -13 c0 -71 -13 -125 -28
-125 -13 0 -84 79 -104 116 -9 17 -9 24 3 34 19 16 72 29 105 27 23 -2 25 -6
24 -52z m276 -52 c0 -34 -80 -139 -88 -115 -6 20 61 132 80 132 4 0 8 -8 8
-17z m2537 -95 c-14 -24 -33 -51 -43 -60 -33 -29 -220 -95 -233 -82 -7 7 19
27 163 125 130 88 158 93 113 17z m-719 -29 c52 -22 102 -57 102 -69 0 -5 -16
-12 -36 -16 -19 -4 -38 -12 -40 -19 -3 -7 11 -61 30 -121 82 -257 71 -390 -46
-541 -57 -75 -70 -71 -50 17 26 122 -8 118 -162 -15 -167 -144 -194 -148 -229
-28 -19 64 -14 69 73 75 93 7 169 46 250 127 96 97 115 141 115 271 0 120 -21
195 -80 293 l-35 59 32 -7 c18 -4 52 -16 76 -26z m449 -31 c-25 -24 -49 -55
-52 -70 -4 -16 -11 -28 -16 -28 -24 0 12 70 55 108 55 48 66 39 13 -10z m207
-118 c14 -5 33 -21 42 -35 16 -25 16 -30 1 -79 -22 -70 -82 -137 -147 -165
-77 -33 -94 -27 -100 36 -7 66 -16 75 -24 24 -9 -59 -26 -91 -53 -97 -32 -9
-37 -1 -43 64 -3 31 -9 56 -15 55 -5 -1 -13 -27 -17 -58 -8 -63 -21 -90 -47
-105 -26 -13 -36 2 -55 82 -21 89 -59 182 -91 219 -45 55 -5 67 59 19 50 -38
70 -38 242 4 200 49 210 51 248 36z m-3867 -46 c13 -16 67 -85 120 -154 53
-69 123 -156 155 -193 79 -92 88 -113 99 -225 15 -149 52 -256 119 -342 15
-19 34 -47 44 -61 l16 -26 -171 -159 c-487 -451 -835 -695 -1254 -882 -186
-82 -173 -81 -263 -29 -85 50 -259 124 -367 156 -113 33 -228 49 -435 61 -240
14 -265 20 -287 65 -18 38 -12 65 14 65 10 0 34 10 53 23 19 13 74 45 122 70
174 94 338 239 394 347 24 47 28 67 29 140 0 101 -10 124 -95 230 -58 70 -60
74 -43 92 25 28 247 191 381 281 221 147 965 503 1177 563 27 7 77 12 109 11
51 -3 62 -7 83 -33z m1497 -97 c14 -22 -4 -52 -30 -52 -23 0 -31 39 -13 61 14
17 28 14 43 -9z m2816 -160 c0 -16 -65 -231 -82 -269 -16 -38 -25 -48 -45 -48
-29 0 -96 33 -122 61 -44 47 -33 136 24 197 38 41 42 35 20 -27 -12 -36 -13
-47 -1 -74 7 -18 20 -38 30 -46 14 -12 21 -9 55 27 22 22 46 63 55 89 18 54
42 93 57 93 5 0 9 -1 9 -3z m-110 -62 c0 -23 -29 -75 -42 -75 -13 0 -3 57 13
77 15 18 29 17 29 -2z m-329 -112 c10 -11 14 -44 14 -102 0 -106 -26 -163 -91
-198 l-41 -23 -27 21 c-36 28 -35 82 4 163 28 59 102 156 120 156 4 0 14 -7
21 -17z m-1501 -147 c70 -73 88 -95 127 -162 38 -64 56 -119 49 -147 -7 -30
-148 -197 -166 -197 -5 0 -47 30 -95 66 -139 106 -304 184 -388 184 -19 0 -39
6 -45 13 -16 19 -25 109 -17 162 l6 47 82 -7 c135 -10 278 40 293 103 4 15 9
30 11 35 8 14 84 -37 143 -97z m-5333 -153 c32 -7 18 -23 -20 -23 -18 0 -59
-7 -91 -15 -56 -15 -60 -14 -92 6 -19 11 -34 28 -34 36 0 14 14 15 108 9 59
-4 117 -10 129 -13z m807 -69 c275 -58 393 -121 456 -243 19 -37 14 -124 -11
-173 -54 -108 -171 -222 -351 -341 -111 -74 -193 -113 -251 -121 -51 -8 -137
1 -137 14 0 5 42 40 93 78 135 102 249 224 276 297 29 77 36 135 22 178 -29
87 -218 211 -371 243 -116 24 -345 4 -658 -58 -118 -23 -166 -28 -173 -21 -17
17 51 48 166 78 101 26 432 91 500 99 95 10 322 -6 439 -30z m4917 -69 c-1
-15 -24 -12 -29 3 -3 9 2 13 12 10 10 -1 17 -7 17 -13z m-899 -55 c23 -44 23
-72 -1 -94 -25 -23 -84 -18 -89 7 -5 26 4 56 28 95 24 40 37 38 62 -8z m154 4
c123 -49 234 -129 234 -169 0 -8 -18 -24 -39 -35 -22 -11 -43 -24 -46 -30 -4
-6 -26 -20 -49 -31 -26 -12 -50 -33 -63 -55 l-20 -36 -99 76 c-149 114 -166
130 -124 119 62 -16 100 31 100 127 0 72 6 74 106 34z m726 -39 c19 -19 48
-61 64 -93 l29 -57 0 -335 c0 -360 -1 -374 -57 -550 -71 -223 -194 -490 -260
-565 -61 -69 -101 -86 -227 -92 -133 -7 -379 11 -492 36 -48 11 -138 41 -200
66 -152 62 -207 80 -216 71 -5 -4 10 -24 32 -43 38 -33 39 -35 21 -48 -65 -48
-265 -109 -392 -120 -137 -12 -287 33 -319 95 -18 35 -20 150 -3 231 10 51 9
61 -12 114 l-24 58 21 16 c107 82 106 80 73 154 -22 48 -19 87 6 108 17 14 18
63 2 77 -7 5 -36 18 -64 28 l-52 18 -143 -52 c-241 -88 -313 -91 -378 -17 -57
65 -37 158 45 214 88 60 261 104 489 123 121 10 151 9 217 -5 80 -16 224 -79
313 -136 100 -64 260 -92 260 -46 0 17 -19 26 -108 56 -115 39 -142 54 -113
65 25 9 156 -12 221 -37 63 -23 127 -75 153 -123 11 -21 16 -56 16 -111 0 -89
-15 -129 -61 -164 -28 -21 -28 -21 -8 -36 30 -23 139 -54 214 -61 58 -6 189 5
274 22 26 5 27 4 22 -19 -11 -42 14 -42 55 2 90 94 203 404 260 715 33 177 65
256 146 359 42 54 123 117 149 117 7 0 27 -16 47 -35z m952 -102 c-36 -162
-266 -743 -294 -743 -26 0 -207 162 -221 199 -10 26 18 97 48 122 21 18 39 -7
53 -77 6 -30 15 -54 20 -54 5 0 8 61 7 138 l-2 137 40 79 c43 86 74 115 150
140 28 9 79 32 115 50 81 43 92 44 84 9z m-3060 -31 c66 -49 150 -99 254 -151
68 -34 86 -48 98 -76 7 -19 30 -47 50 -62 64 -49 115 -96 125 -116 21 -39 -4
-41 -113 -9 -166 49 -214 56 -363 56 -156 -1 -253 -18 -373 -64 -255 -99 -330
-333 -150 -466 40 -30 48 -29 225 26 204 64 292 84 309 70 26 -22 18 -113 -17
-192 -38 -87 -45 -129 -29 -177 11 -34 10 -42 -14 -88 -15 -28 -29 -67 -33
-86 -8 -52 23 -140 80 -225 l49 -73 -18 -35 c-11 -20 -26 -42 -35 -50 -13 -12
-18 -10 -35 14 -32 43 -80 133 -99 185 -15 39 -22 47 -39 45 -51 -7 -23 -115
55 -208 l49 -59 -42 -24 c-370 -208 -579 -295 -882 -367 -289 -68 -428 -80
-949 -80 l-409 0 -30 32 -30 33 31 12 c17 7 73 18 125 25 74 9 100 9 122 0 14
-7 24 -15 21 -19 -4 -3 -48 -9 -98 -14 -93 -9 -108 -13 -95 -26 13 -13 244
-15 350 -3 171 19 482 97 604 150 60 27 159 124 173 171 32 104 -57 259 -302
526 -163 178 -202 227 -197 249 2 11 31 29 83 49 221 87 579 297 820 480 121
92 308 251 430 366 117 111 238 219 244 219 2 0 27 -17 55 -38z m2342 -127
c89 -184 146 -332 148 -385 l1 -45 -68 -7 c-38 -3 -82 -11 -99 -17 -17 -6 -34
-11 -37 -11 -3 0 -7 96 -7 213 -2 174 -6 230 -23 311 -26 119 -26 113 0 90 12
-10 50 -77 85 -149z m-620 59 c17 -45 11 -104 -11 -107 -12 -2 -43 105 -44
152 -1 33 -1 34 19 16 10 -9 27 -37 36 -61z m-756 10 c-16 -18 -60 -19 -60 0
0 8 15 23 33 35 l32 20 3 -20 c2 -11 -2 -27 -8 -35z m143 13 c162 -104 324
-300 300 -362 -2 -8 2 -29 11 -46 53 -106 -54 -114 -144 -12 -33 38 -42 44
-55 33 -26 -22 -18 -65 18 -96 46 -39 126 -74 169 -74 35 0 110 24 202 64 l39
17 -6 -33 c-7 -46 -63 -196 -87 -235 -12 -20 -28 -33 -40 -33 -54 0 -143 69
-247 192 -71 84 -108 116 -120 104 -3 -3 4 -21 15 -40 22 -38 15 -56 -24 -56
-63 0 -119 100 -135 237 -16 142 13 373 47 373 3 0 28 -15 57 -33z m532 -121
c32 -84 52 -221 38 -261 -8 -25 -17 -31 -55 -39 -24 -5 -66 -6 -91 -2 -63 10
-79 40 -85 162 -3 71 -1 98 12 122 9 18 20 32 24 32 5 0 18 -24 30 -52 22 -50
24 -52 37 -34 9 12 15 42 15 72 0 29 5 65 10 80 l11 27 15 -21 c8 -12 26 -50
39 -86z m1032 49 c1 -5 -7 -26 -18 -45 -20 -32 -22 -33 -35 -15 -17 23 -18 62
-1 69 18 7 50 2 54 -9z m-131 -30 c36 -23 58 -75 50 -117 -7 -40 -55 -118 -72
-118 -24 0 -102 214 -90 245 5 14 14 17 47 12 22 -3 51 -13 65 -22z m-1642 -7
c3 -13 8 -50 11 -83 4 -33 15 -100 27 -148 11 -49 18 -90 16 -93 -3 -2 -24 3
-48 11 -24 8 -97 20 -164 26 -67 6 -132 16 -146 22 -35 17 -52 57 -44 107 10
65 34 86 129 115 46 14 103 34 127 44 60 27 86 26 92 -1z m-414 -110 c0 -19
-4 -28 -12 -26 -20 7 -42 53 -34 73 6 17 7 17 26 0 11 -10 20 -31 20 -47z
m2069 -382 c43 -23 114 -93 106 -106 -3 -5 -24 -19 -45 -30 -105 -53 -330 8
-330 90 0 34 19 51 68 61 54 11 166 3 201 -15z m-5601 -28 c61 -10 121 -41
130 -65 10 -32 -75 -37 -123 -8 -11 7 -51 23 -90 35 -77 25 -98 37 -89 52 6
10 61 6 172 -14z m4142 -14 c0 -8 -6 -14 -14 -14 -16 0 -29 27 -20 41 8 13 34
-9 34 -27z m125 -25 c32 -22 74 -53 94 -69 20 -16 73 -49 119 -73 97 -51 95
-59 -19 -84 -89 -19 -322 -24 -339 -7 -9 9 -8 27 4 75 23 89 27 91 105 84 l66
-7 -60 61 c-69 71 -56 80 30 20z m-4476 2 c21 -13 8 -25 -92 -87 -51 -31 -159
-107 -242 -169 -290 -216 -428 -294 -594 -335 -107 -26 -120 -22 -101 34 36
111 257 324 369 356 39 11 41 -5 6 -39 -27 -25 -32 -41 -14 -41 6 0 57 29 112
64 112 69 298 165 392 202 61 23 139 31 164 15z m-817 -38 c24 -9 49 -21 57
-27 21 -16 -18 -41 -103 -66 -40 -12 -86 -33 -102 -47 l-29 -24 88 4 c48 2 87
1 87 -1 0 -2 -37 -45 -83 -96 -45 -50 -105 -117 -132 -150 -45 -54 -50 -57
-62 -40 -9 13 -12 33 -7 64 22 163 94 309 183 375 41 30 47 30 103 8z m972
-32 c6 -9 -50 -28 -114 -36 -25 -4 -56 -8 -70 -11 -50 -8 31 29 90 42 68 15
87 16 94 5z m5504 -52 c118 -22 127 -22 199 -7 87 18 98 10 63 -46 -53 -88
-131 -121 -258 -113 -153 10 -187 27 -187 94 1 77 12 106 38 100 12 -3 78 -16
145 -28z m-6348 -3 c0 -2 -8 -10 -17 -17 -16 -13 -17 -12 -4 4 13 16 21 21 21
13z m1716 -41 c221 -58 391 -142 531 -264 78 -68 158 -159 149 -169 -3 -2 -26
4 -51 13 -37 15 -48 16 -58 5 -9 -10 -9 -14 2 -17 7 -3 53 -32 101 -64 158
-106 320 -302 320 -388 0 -45 -20 -79 -79 -135 -65 -60 -125 -87 -292 -132
-119 -32 -151 -37 -289 -41 l-155 -4 55 32 c178 103 181 198 11 372 -224 231
-456 334 -911 404 -242 37 -510 21 -865 -53 -202 -42 -420 -112 -403 -129 2
-2 100 18 218 45 118 27 268 59 333 70 159 27 417 43 552 35 467 -28 906 -205
1078 -434 101 -135 85 -212 -60 -279 -112 -52 -203 -67 -403 -67 -158 0 -186
3 -285 28 -167 42 -296 83 -450 144 -185 73 -231 97 -380 198 -125 85 -145 95
-145 74 0 -13 74 -88 130 -132 l35 -28 -38 6 c-21 3 -82 20 -135 36 -228 71
-247 35 -22 -44 41 -14 65 -28 65 -37 0 -37 -191 -110 -348 -134 -205 -32
-547 -27 -615 8 -35 18 -65 63 -82 123 -11 37 -10 46 9 87 31 63 135 157 223
200 40 20 122 48 182 64 109 27 139 46 94 57 -68 17 -270 -58 -421 -157 -43
-28 -80 -48 -84 -45 -17 18 71 159 142 229 27 26 67 57 91 69 l42 23 42 -29
c107 -74 351 -23 560 117 36 24 129 87 207 140 314 215 358 225 919 227 378 1
383 1 480 -24z m4431 -150 c3 -9 -9 -52 -26 -96 -17 -44 -36 -103 -41 -131
-17 -86 -39 -121 -83 -131 -21 -5 -40 -7 -43 -4 -3 3 17 54 44 113 27 60 64
144 82 187 31 75 53 96 67 62z m439 -13 c20 -13 64 -86 56 -93 -13 -13 -175
-60 -189 -55 -27 11 6 100 51 138 22 18 63 23 82 10z m-287 -19 c92 -7 111
-16 111 -50 0 -25 -1 -25 -57 -18 -81 9 -128 22 -154 44 -24 19 -18 47 8 36 9
-3 50 -8 92 -12z m33 -124 c46 -12 56 -40 34 -93 -16 -38 -24 -41 -101 -37
-48 3 -123 34 -131 55 -6 16 9 50 35 80 13 15 25 17 71 12 30 -4 72 -11 92
-17z m421 -60 c56 -29 127 -78 127 -88 0 -9 -95 -53 -179 -82 -102 -36 -281
-157 -281 -191 0 -14 11 -9 109 46 53 30 177 89 276 131 l180 77 85 -7 c192
-15 329 -60 384 -126 42 -50 34 -60 -26 -37 -113 43 -298 33 -413 -23 -33 -16
-67 -29 -77 -29 -33 0 -129 -42 -174 -76 l-45 -35 -82 20 c-45 11 -121 23
-169 27 -83 6 -88 8 -83 28 3 11 16 88 29 169 19 119 29 154 47 173 52 56 203
68 292 23z m-7155 -37 c2 -7 -3 -12 -12 -12 -9 0 -16 7 -16 16 0 17 22 14 28
-4z m6646 -82 c49 -10 92 -24 97 -32 13 -19 11 -62 -3 -76 -17 -17 -141 -15
-183 2 -46 20 -74 74 -56 112 9 21 16 25 34 20 12 -4 62 -15 111 -26z m-224
-99 c0 -19 -34 -54 -63 -65 -25 -8 -69 4 -64 18 5 15 108 77 118 70 5 -3 9
-13 9 -23z m3190 -93 c-53 -99 -64 -285 -25 -418 9 -30 66 -154 126 -275 136
-273 148 -319 130 -500 -14 -140 -26 -186 -58 -221 -20 -22 -29 -25 -61 -19
-44 7 -125 46 -129 61 -2 6 4 21 14 33 16 19 22 21 51 10 18 -6 39 -8 48 -5
13 5 13 9 -2 36 -23 38 -15 45 24 23 51 -29 47 -7 -9 56 -93 103 -153 221
-239 471 -37 107 -44 141 -50 240 -13 222 9 338 88 452 40 57 101 120 112 113
4 -3 -5 -29 -20 -57z m-4335 25 c22 -21 14 -60 -32 -160 -19 -43 -53 -125 -75
-183 -22 -58 -60 -149 -85 -202 -45 -95 -49 -122 -28 -170 13 -31 -48 -76
-207 -153 -187 -89 -254 -113 -431 -155 l-139 -32 -436 5 c-548 6 -553 7
-1137 149 -393 95 -418 99 -437 69 -7 -11 -18 -21 -23 -21 -14 0 -57 88 -50
101 9 14 43 11 78 -8 66 -36 538 -8 907 53 192 32 391 81 560 139 154 53 193
72 409 194 l163 92 192 9 c188 8 226 13 226 31 0 11 -8 11 -130 9 -81 -1 -100
2 -119 17 -29 24 -22 55 17 73 16 7 102 16 214 21 203 9 290 24 371 65 55 29
157 73 169 74 4 0 14 -7 23 -17z m1378 1 l78 -7 -6 -51 c-10 -78 -26 -96 -83
-96 -60 0 -141 23 -176 51 -30 24 -34 63 -10 98 15 21 22 23 68 17 28 -3 86
-9 129 -12z m3135 -24 c63 -49 161 -163 219 -253 94 -145 209 -394 190 -413
-3 -4 -34 19 -69 50 -35 31 -67 56 -71 56 -17 0 33 -65 195 -253 253 -294 312
-385 372 -575 24 -78 26 -95 26 -283 0 -189 -1 -203 -21 -232 -43 -64 -114
-114 -224 -158 -40 -16 -78 -29 -84 -29 -6 0 -11 20 -11 48 0 80 -68 199 -179
315 -25 27 -96 87 -158 133 -61 47 -113 90 -116 97 -3 7 11 76 29 153 45 179
52 270 30 349 -10 33 -64 148 -121 255 -166 313 -190 393 -173 571 8 84 31
147 68 187 28 30 41 28 98 -18z m-2033 -7 c107 -33 144 -74 125 -143 -10 -37
-44 -90 -59 -90 -4 0 -42 48 -86 108 -43 59 -83 112 -88 119 -5 7 -6 17 -2 23
7 11 31 7 110 -17z m-181 -9 c28 -11 166 -212 166 -242 0 -8 -23 -12 -68 -12
-68 0 -68 0 -84 33 -9 19 -38 60 -65 93 -73 87 -88 113 -72 118 44 15 99 19
123 10z m-2160 -26 c8 -13 18 -46 22 -74 7 -56 4 -61 -51 -79 -43 -14 -35 -28
31 -48 33 -10 86 -28 119 -40 l60 -22 -50 -5 -50 -5 34 -33 c63 -61 103 -75
241 -82 115 -6 131 -9 200 -42 98 -46 122 -73 128 -141 4 -51 3 -54 -36 -89
-50 -45 -103 -61 -202 -61 -152 0 -267 54 -411 190 -98 93 -119 106 -119 78 0
-123 268 -303 484 -325 100 -10 143 -30 152 -68 10 -47 13 -52 39 -64 39 -18
73 14 101 92 13 35 30 70 37 78 12 12 17 9 35 -16 36 -50 45 -82 27 -102 -22
-24 -200 -107 -270 -125 -69 -18 -218 -21 -259 -6 -48 19 -115 70 -248 192
-125 115 -167 142 -153 100 3 -11 1 -22 -5 -26 -17 -10 -117 41 -135 69 -16
25 -16 30 -1 93 44 175 225 583 258 583 4 0 14 -10 22 -22z m921 13 c23 -5 31
-12 33 -33 3 -26 32 -54 77 -73 17 -8 14 -10 -17 -13 -30 -3 -155 26 -321 74
-35 11 -14 39 33 45 60 8 158 8 195 0z m1085 -88 c62 -56 120 -134 120 -160 0
-7 -21 -28 -47 -47 -60 -43 -109 -107 -167 -216 -52 -100 -86 -204 -86 -266 0
-24 -5 -44 -10 -44 -6 0 -38 11 -73 25 -73 30 -147 43 -147 26 0 -6 49 -35
109 -66 60 -30 112 -59 115 -64 9 -14 -49 -24 -97 -17 -44 6 -152 -6 -164 -18
-14 -14 20 -23 110 -29 101 -7 184 -28 235 -59 21 -13 62 -64 109 -136 89
-135 210 -263 263 -279 l35 -10 -60 -12 c-108 -21 -158 -36 -162 -47 -5 -14
29 -24 87 -24 72 0 78 -12 28 -52 -23 -20 -62 -45 -85 -57 -50 -25 -57 -51
-15 -51 42 0 118 53 204 142 l78 80 74 -41 c41 -23 84 -41 96 -41 27 0 25 -13
-10 -62 -38 -52 -68 -149 -76 -242 -9 -111 -20 -145 -51 -152 -39 -10 -186 3
-291 25 -196 43 -406 132 -563 239 -270 185 -269 183 -269 360 l0 124 39 44
c45 52 68 117 82 239 5 50 21 122 34 162 14 39 25 91 25 115 0 70 12 79 128
92 56 6 105 16 110 21 14 14 80 212 87 260 6 34 1 51 -29 109 -30 56 -34 72
-24 82 13 13 178 104 189 104 3 0 34 -26 69 -57z m-1716 27 c54 -5 103 -13
109 -19 36 -36 -96 -150 -176 -151 -43 0 -94 28 -117 65 -49 80 -31 130 44
120 22 -3 86 -9 140 -15z m200 -16 c8 -21 -13 -49 -27 -35 -10 10 0 51 13 51
4 0 11 -7 14 -16z m212 -19 c311 -86 817 -185 945 -185 19 0 43 -6 53 -13 17
-13 17 -18 -10 -113 -15 -54 -34 -106 -41 -114 -17 -19 -116 -16 -358 11 -421
46 -795 130 -795 177 0 9 9 58 20 107 11 50 22 107 25 128 3 20 12 37 19 37 7
0 71 -16 142 -35z m-6526 -59 c0 -24 3 -65 6 -92 3 -32 2 -44 -4 -34 -14 23
-25 170 -12 170 5 0 10 -20 10 -44z m7475 2 c40 -21 69 -54 60 -68 -5 -8 -28
-9 -74 -5 -161 16 -413 58 -436 73 -16 11 119 20 275 18 112 -1 152 -6 175
-18z m-1188 -58 c-7 -52 -45 -130 -63 -130 -19 0 -36 47 -29 80 7 33 58 90 81
90 14 0 16 -7 11 -40z m-2714 -58 c7 -10 -32 -57 -40 -48 -3 3 -1 17 5 31 11
25 26 32 35 17z m2567 -27 c14 -17 5 -51 -17 -59 -19 -8 -53 21 -53 45 0 29
49 39 70 14z m2007 -21 c24 -14 50 -39 59 -56 33 -64 -3 -232 -81 -389 -31
-60 -44 -75 -97 -110 -61 -39 -104 -56 -114 -46 -6 6 84 69 142 100 40 22 40
14 19 272 -8 99 -15 199 -15 223 0 40 2 43 23 37 12 -4 41 -18 64 -31z m-147
-70 c25 -83 44 -236 38 -315 -5 -76 -19 -90 -161 -167 l-108 -59 28 -18 c72
-48 196 -24 318 59 37 25 74 46 81 46 8 0 31 -15 51 -34 70 -62 188 -148 230
-168 50 -24 96 -64 91 -80 -9 -27 -61 -50 -190 -85 -76 -20 -138 -41 -138 -46
0 -14 169 -1 248 19 77 19 86 14 77 -51 -12 -77 -117 -215 -163 -215 -9 0 -42
18 -72 40 -65 47 -111 70 -142 70 -41 1 -106 37 -154 87 -58 59 -164 191 -164
203 0 21 192 49 332 50 77 0 96 14 40 31 -38 11 -269 7 -361 -7 -43 -6 -44 -6
-112 62 l-70 69 7 80 c17 215 91 375 218 467 21 15 43 28 47 28 5 0 17 -30 29
-66z m-1292 -148 c54 -13 148 -29 208 -35 60 -6 154 -15 208 -21 108 -10 133
-23 123 -62 -12 -45 -64 -114 -100 -131 -67 -32 -295 -14 -423 34 -74 28 -136
77 -147 116 -12 42 0 123 18 123 8 0 58 -11 113 -24z m3100 -169 c42 -115 91
-220 151 -321 51 -87 59 -106 42 -106 -14 0 -162 224 -202 305 -27 55 -35 84
-38 143 -4 94 7 89 47 -21z m-156 26 c42 -40 36 -63 -32 -122 -71 -62 -117
-148 -151 -284 -12 -49 -26 -84 -30 -80 -17 17 -59 178 -59 225 0 59 18 96 79
161 53 57 138 127 154 127 6 0 24 -12 39 -27z m-544 -44 c56 -24 47 -37 -20
-31 -71 5 -101 -8 -142 -65 -76 -104 -110 -291 -87 -468 14 -106 84 -326 139
-440 115 -237 334 -381 667 -441 138 -24 435 -26 519 -2 33 9 64 14 69 11 16
-9 1 -89 -22 -122 -35 -48 -104 -90 -168 -102 -95 -18 -610 -6 -703 16 -192
46 -450 192 -570 322 -205 224 -241 645 -86 1013 70 165 189 311 272 333 28 8
83 -2 132 -24z m-3568 -68 c0 -64 -45 -92 -224 -137 -123 -31 -338 -75 -343
-70 -2 1 54 25 124 51 120 45 212 88 361 170 35 19 68 33 73 29 5 -3 9 -22 9
-43z m2660 18 c0 -5 -4 -9 -10 -9 -5 0 -10 7 -10 16 0 8 5 12 10 9 6 -3 10
-10 10 -16z m-1729 -57 c-13 -46 -36 -71 -53 -54 -13 13 3 66 29 94 25 27 36
8 24 -40z m-4327 38 c64 -24 266 -259 266 -309 0 -16 -138 -13 -185 4 -52 19
-109 19 -145 0 -27 -14 -29 -14 -62 28 -76 94 -80 103 -64 135 21 41 92 124
118 139 28 15 40 16 72 3z m3562 -15 c27 -14 102 -69 166 -122 140 -118 213
-164 272 -170 55 -7 173 19 245 52 30 14 56 23 58 21 3 -2 -1 -14 -7 -26 -6
-12 -9 -25 -5 -28 7 -7 39 26 82 84 19 24 24 27 32 14 6 -8 11 -18 11 -22 0
-19 -58 -70 -130 -112 -44 -25 -80 -51 -80 -57 0 -7 18 -9 47 -7 59 4 66 -13
15 -36 -38 -17 -40 -17 -80 3 -23 11 -96 30 -164 41 -198 31 -277 61 -376 140
-53 41 -160 168 -187 221 l-16 29 34 0 c18 0 56 -11 83 -25z m1524 12 c0 -2
-12 -14 -27 -28 l-28 -24 24 28 c23 25 31 32 31 24z m1910 -7 c59 -16 136 -92
174 -173 51 -108 86 -222 86 -282 0 -58 -8 -65 -81 -65 -45 0 -216 -43 -258
-64 -17 -9 -31 -21 -31 -26 0 -15 41 -12 200 14 80 14 146 23 148 21 2 -1 -35
-24 -82 -49 -139 -76 -121 -85 64 -32 199 57 495 43 724 -35 109 -37 254 -107
317 -153 59 -44 80 -90 93 -203 11 -108 0 -160 -44 -205 -24 -23 -37 -28 -77
-28 -54 1 -77 14 -93 54 -12 31 -30 26 -30 -9 0 -29 -22 -52 -58 -62 -47 -14
-521 -8 -585 6 -131 29 -307 122 -416 218 -117 104 -183 231 -249 473 -33 122
-37 147 -37 260 0 118 2 130 33 206 51 128 102 162 202 134z m-7509 -58 c154
-77 154 -89 -1 -98 -193 -11 -279 -52 -296 -140 -17 -94 21 -274 88 -414 31
-66 57 -101 112 -155 76 -75 174 -141 225 -151 41 -9 48 -22 15 -30 -61 -15
-241 34 -280 77 -9 10 -73 115 -141 231 -154 265 -167 303 -161 471 4 129 14
161 60 204 46 43 86 54 194 50 97 -2 105 -4 185 -45z m5160 19 c70 -21 188
-41 243 -41 20 0 36 -5 36 -11 0 -12 -134 -144 -162 -160 -14 -7 -24 -3 -45
22 -38 42 -143 189 -143 200 0 12 -2 12 71 -10z m-4006 -32 c149 -45 220 -90
255 -160 18 -34 20 -59 20 -214 l0 -176 -41 -82 c-60 -121 -73 -132 -162 -131
-69 1 -113 10 -482 99 -99 24 -186 38 -255 42 -58 3 -113 10 -122 15 -52 26
33 245 112 291 24 15 37 15 136 0 122 -17 254 -12 366 13 37 9 78 14 90 12 19
-3 11 -11 -49 -51 -76 -51 -143 -117 -143 -142 0 -25 19 -17 68 26 61 54 128
93 147 85 14 -5 14 -10 -1 -43 -41 -94 -54 -136 -48 -155 11 -37 37 -14 58 52
12 36 25 65 30 65 6 0 19 -24 31 -52 67 -167 76 -5 11 207 -31 102 -52 157
-110 293 -16 37 -16 38 1 33 10 -3 49 -15 88 -27z m6942 9 c12 -13 55 -69 97
-125 l75 -102 -32 -24 c-37 -29 -166 -109 -251 -157 l-59 -33 -19 22 c-14 18
-18 40 -18 100 0 149 59 282 145 329 29 16 39 15 62 -10z m-2948 -147 l74 -95
-32 -28 c-17 -15 -40 -28 -52 -28 -26 0 -81 61 -120 133 l-30 57 28 51 27 51
16 -23 c8 -13 48 -66 89 -118z m-3551 64 c4 -4 -2 -5 -13 -2 -11 3 -45 9 -75
12 -61 8 -120 29 -120 43 0 10 196 -40 208 -53z m3958 -67 c-48 -127 -332
-370 -683 -585 -98 -60 -119 -69 -126 -57 -14 25 2 100 31 142 36 53 71 81
178 142 126 73 188 120 359 271 83 73 170 145 195 161 l45 29 9 -30 c6 -22 4
-43 -8 -73z m-3588 -67 c58 -16 76 -45 63 -103 -46 -204 -174 -437 -284 -515
-107 -77 -112 -78 -327 -78 -328 1 -575 51 -999 202 -59 21 -37 33 61 33 92 0
173 -16 372 -75 328 -97 424 -99 514 -12 34 32 76 104 95 162 5 16 13 125 17
241 4 116 10 216 13 221 6 9 382 -51 475 -76z m-1948 43 c86 -13 107 -13 172
-1 85 16 104 11 141 -33 36 -42 34 -63 -10 -156 -37 -77 -38 -82 -38 -195 0
-83 4 -124 15 -143 13 -26 13 -29 -10 -47 -80 -61 -222 -89 -286 -56 -113 59
-209 249 -221 434 -7 113 3 142 65 183 53 35 46 34 172 14z m4970 -54 c17 -9
90 -101 90 -113 0 -10 -214 -167 -227 -167 -22 0 -24 20 -9 80 19 71 59 154
91 186 27 27 29 28 55 14z m3361 -90 c16 -13 20 -22 13 -27 -7 -5 -17 -34 -24
-66 -13 -66 -38 -97 -75 -97 -23 0 -25 4 -25 43 1 59 52 167 80 167 4 0 18 -9
31 -20z m-3962 -20 c69 -16 158 -34 196 -40 81 -13 96 -23 72 -48 -15 -14 -36
-17 -125 -17 -91 0 -114 3 -153 23 -69 34 -155 112 -123 112 4 0 63 -13 133
-30z m3808 -76 c-3 -37 -10 -70 -17 -74 -13 -8 -330 -23 -337 -16 -2 2 -3 20
-1 40 l3 37 34 -25 c19 -15 47 -26 61 -26 32 0 151 57 205 98 22 17 44 31 49
31 5 1 6 -29 3 -65z m-2757 2 c0 -19 -29 -48 -41 -40 -5 3 -6 11 -3 17 22 38
44 49 44 23z m-77 -94 c36 -40 70 -136 74 -212 6 -88 -9 -142 -32 -119 -7 8
-41 67 -75 133 -65 124 -67 140 -33 192 18 28 44 31 66 6z m-103 -194 c71
-152 75 -171 50 -272 -11 -46 -20 -99 -20 -118 0 -58 -18 -95 -52 -107 -17 -6
-79 -11 -137 -11 -121 0 -204 23 -285 79 -65 45 -79 70 -71 123 12 76 27 116
54 142 37 36 383 266 399 266 7 0 35 -46 62 -102z m1652 -66 c-7 -59 -24 -165
-38 -237 -35 -176 -36 -294 -5 -358 23 -47 69 -87 100 -87 8 0 41 29 74 65 52
57 112 105 130 105 3 0 13 -7 21 -16 14 -14 14 -18 0 -47 -40 -77 -183 -197
-235 -197 -57 0 -165 113 -214 224 -43 96 -57 177 -45 246 22 123 118 350 177
420 27 32 27 32 37 10 7 -14 6 -57 -2 -128z m-6428 -42 c112 -44 182 -62 340
-87 27 -5 51 -13 53 -18 2 -8 -91 -10 -299 -8 -311 3 -357 5 -405 24 l-27 10
49 27 c28 16 75 44 105 65 30 20 56 37 57 37 2 0 59 -22 127 -50z m1538 -112
c62 -42 144 -148 163 -212 17 -55 20 -136 6 -136 -5 0 -12 11 -15 25 -18 73
-251 155 -441 155 -169 0 -475 -100 -475 -155 0 -22 16 -19 131 24 132 50 207
64 344 65 281 1 478 -130 398 -266 -28 -45 -99 -85 -178 -99 -51 -9 -231 -12
-665 -11 l-595 1 -148 41 c-269 74 -393 135 -495 244 -54 58 -152 215 -152
244 0 7 18 3 45 -9 68 -30 164 -35 279 -14 85 15 110 16 180 6 59 -9 96 -9
135 -1 46 8 58 8 79 -6 25 -16 25 -17 7 -30 -11 -8 -82 -35 -160 -60 -176 -58
-246 -65 -339 -34 -70 23 -88 21 -70 -8 24 -37 54 -43 184 -38 147 6 241 28
376 87 52 23 97 39 100 36 6 -6 -278 -150 -379 -192 -74 -31 -96 -50 -79 -67
18 -18 137 26 272 101 166 92 200 101 288 77 92 -26 135 -30 176 -16 44 14 60
33 52 65 -9 35 -43 54 -122 68 -37 7 -69 18 -72 25 -2 7 13 19 34 28 40 17 72
15 218 -12 105 -19 407 -19 499 1 38 8 105 31 150 51 171 76 187 77 269 22z
m6956 -83 c26 -48 27 -56 27 -209 l0 -158 -42 -37 c-48 -43 -99 -61 -172 -61
-80 0 -91 10 -90 78 2 92 8 103 62 117 54 14 111 55 145 106 21 31 23 43 20
142 -3 119 -2 120 50 22z m-8182 33 c11 -18 -26 -38 -74 -38 -30 0 -42 4 -40
13 10 30 99 50 114 25z m6198 -61 c20 -35 41 -78 47 -96 15 -42 3 -51 -65 -51
l-49 0 6 68 c4 37 7 84 7 105 0 20 4 37 10 37 5 0 25 -29 44 -63z m-2279 -87
c30 -35 130 -97 194 -121 50 -19 74 -21 238 -20 100 1 184 -2 187 -7 3 -5 -39
-53 -94 -106 -79 -77 -116 -105 -177 -134 -92 -43 -158 -48 -213 -16 -89 51
-211 260 -218 371 -3 34 -2 70 2 78 5 15 9 14 33 -3 16 -11 37 -30 48 -42z
m-3777 28 c84 -21 33 -42 -66 -28 -69 9 -102 27 -80 42 14 9 76 3 146 -14z
m6138 -160 c-20 -24 -53 -65 -73 -92 l-37 -49 -32 37 c-29 34 -48 90 -37 109
2 4 23 7 46 7 23 0 62 7 87 14 80 26 87 21 46 -26z m1929 -217 c-9 -16 -25 -3
-18 15 4 10 9 12 15 6 6 -6 7 -15 3 -21z M8360 8586 c0 -16 34 -40 70 -50 22
-7 21 -4 -12 28 -40 38 -58 45 -58 22z M8310 8555 c0 -15 70 -68 79 -60 6 6
-60 75 -71 75 -4 0 -8 -7 -8 -15z M8594 8015 c-18 -73 23 -244 62 -259 40 -15
72 40 58 100 -10 43 -62 139 -89 164 l-24 23 -7 -28z m76 -151 c0 -19 -4 -34
-9 -34 -12 0 -22 45 -15 64 10 25 24 8 24 -30z M7385 7346 c-120 -57 -190
-159 -190 -276 0 -46 6 -73 18 -91 20 -30 65 -53 94 -47 27 5 58 78 98 228 19
74 42 150 50 168 8 18 15 35 15 37 0 12 -39 3 -85 -19z m-21 -113 c-17 -122
-71 -238 -109 -238 -17 0 -21 8 -23 46 -4 62 30 150 77 200 51 53 64 51 55 -8z
M7777 6870 c-10 -35 -8 -93 2 -109 20 -31 191 -4 242 39 l24 19 -32 1 c-17 0
-62 -7 -99 -16 -65 -15 -68 -15 -88 6 -12 11 -26 35 -32 52 -10 32 -11 32 -17
8z M7570 6013 c-25 -37 -81 -112 -125 -168 -44 -56 -93 -122 -109 -148 -40
-63 -65 -70 -190 -56 -73 8 -109 8 -128 0 -56 -22 -34 -33 87 -47 33 -4 72
-13 87 -20 64 -33 83 -18 244 184 115 144 194 269 194 306 0 29 -15 17 -60
-51z M6118 7132 c-27 -46 -78 -181 -94 -250 -15 -66 -13 -93 5 -51 39 95 121
310 121 319 0 19 -16 10 -32 -18z M6338 7002 c5 -132 -8 -180 -73 -267 -53
-70 -56 -88 -18 -83 64 7 144 183 142 316 0 77 -17 135 -40 140 -14 2 -15 -11
-11 -106z M6235 6457 c-16 -50 -31 -98 -33 -104 -5 -20 32 -15 45 6 19 30 36
136 27 165 -8 23 -12 15 -39 -67z M6105 5980 c-15 -24 26 -42 64 -28 19 7 21
11 11 23 -14 17 -66 20 -75 5z M7470 8270 c-119 -22 -173 -44 -205 -82 -32
-38 -52 -104 -38 -126 21 -34 88 -27 151 16 54 36 232 193 232 204 0 11 -30 9
-140 -12z m-55 -100 c-43 -45 -103 -83 -120 -76 -50 19 50 103 124 105 l25 1
-29 -30z M9770 7565 c0 -3 9 -23 19 -44 11 -20 29 -75 41 -122 23 -94 55 -150
103 -179 30 -19 33 -19 45 -3 18 25 16 157 -4 199 -23 48 -204 180 -204 149z
m150 -146 c27 -52 39 -144 19 -137 -24 7 -49 70 -49 126 0 28 2 52 5 52 2 0
14 -18 25 -41z M8677 4728 c-6 -22 6 -94 16 -105 13 -13 27 12 27 48 0 65 -31
105 -43 57z M5250 6470 c0 -5 18 -19 41 -30 22 -12 48 -35 57 -52 31 -55 49
-74 62 -62 30 30 -87 154 -144 154 -9 0 -16 -4 -16 -10z M1704 4146 c-32 -32
-45 -66 -24 -66 13 0 79 59 91 81 17 33 -29 23 -67 -15z M1742 3780 c-132 -67
-172 -93 -159 -106 8 -9 102 24 179 62 88 44 167 114 129 114 -4 0 -71 -32
-149 -70z M4424 6062 c-92 -67 -124 -127 -124 -235 0 -77 18 -115 76 -165 96
-83 168 -90 243 -26 116 100 124 284 15 384 -82 75 -146 88 -210 42z m136 -44
c63 -32 80 -70 80 -181 0 -132 -24 -167 -117 -167 -55 0 -115 30 -146 72 -30
40 -29 151 1 200 25 41 97 98 122 98 9 0 36 -10 60 -22z M4464 5342 c-87 -41
-67 -132 30 -132 44 0 276 36 284 45 10 9 -56 56 -107 75 -80 31 -157 35 -207
12z m176 -42 c22 -14 -31 -31 -118 -37 -64 -5 -72 -4 -66 10 10 28 151 48 184
27z M7160 5258 c-83 -41 -217 -173 -253 -249 -59 -125 -42 -144 33 -40 71 99
94 101 122 9 16 -54 -2 -89 -63 -122 -50 -28 -62 -49 -33 -60 19 -7 50 8 87
43 57 52 71 109 42 178 -19 44 -19 87 -2 102 18 14 37 -5 37 -35 0 -13 5 -35
10 -50 10 -25 12 -26 27 -11 15 14 15 24 4 83 -14 78 -2 108 49 119 31 7 51
31 43 53 -7 19 -35 14 -103 -20z M5911 5199 c-29 -39 -48 -95 -37 -106 10 -10
37 20 62 69 42 83 25 107 -25 37z M6014 5106 c-46 -20 -124 -99 -124 -124 0
-12 4 -22 8 -22 5 0 35 21 68 46 32 25 69 50 82 55 16 6 22 16 20 31 -4 27
-15 30 -54 14z M5544 4546 c-79 -83 -107 -141 -108 -220 0 -99 49 -162 94
-121 36 32 110 277 110 362 0 61 -22 57 -96 -21z m31 -108 c-8 -34 -27 -88
-42 -120 -42 -94 -75 -69 -48 35 17 67 36 108 74 157 24 32 26 33 29 13 2 -12
-4 -50 -13 -85z M6040 5671 c0 -11 67 -71 80 -71 18 0 10 16 -23 48 -32 31
-57 41 -57 23z M5950 5648 c0 -24 165 -167 178 -153 8 8 -153 165 -169 165 -5
0 -9 -5 -9 -12z M3880 4613 c-62 -11 -169 -74 -219 -129 -54 -59 -61 -85 -35
-122 28 -40 68 -26 235 84 120 79 211 153 204 165 -6 9 -137 10 -185 2z m90
-28 c0 -6 -122 -88 -213 -144 -105 -64 -129 -54 -48 22 47 44 118 86 191 113
36 13 70 18 70 9z M4365 4416 c-70 -22 -101 -43 -168 -116 -65 -70 -84 -111
-72 -150 9 -29 31 -25 84 14 65 48 243 234 238 249 -5 17 -35 18 -82 3z m-115
-165 c-40 -56 -60 -74 -60 -52 0 13 49 84 72 104 36 31 31 10 -12 -52z M6713
3846 c7 -74 43 -233 63 -283 13 -29 19 -33 52 -33 21 0 48 7 61 16 21 15 23
22 19 78 -4 41 -16 82 -37 124 -36 71 -118 162 -146 162 -16 0 -17 -6 -12 -64z
m107 -91 c34 -67 55 -185 33 -185 -34 0 -73 92 -80 189 -7 88 1 88 47 -4z
M4926 3564 c-9 -22 -7 -54 2 -54 15 0 32 24 32 47 0 26 -25 31 -34 7z M4425
3506 c-18 -27 -17 -97 2 -103 22 -8 48 116 26 124 -6 2 -19 -7 -28 -21z M4560
3487 c-7 -23 -21 -59 -31 -79 -11 -21 -19 -45 -19 -54 0 -15 2 -15 21 2 29 25
59 92 59 131 0 48 -15 48 -30 0z M5067 3470 c-29 -23 -59 -92 -51 -115 11 -28
38 -11 66 40 42 76 34 114 -15 75z M4866 3455 c-9 -9 -16 -25 -16 -36 0 -17 3
-18 21 -9 25 14 35 38 22 51 -7 7 -16 5 -27 -6z M6575 2601 c-88 -44 -77 -53
30 -26 64 17 85 30 85 51 0 23 -32 16 -115 -25z M4145 3200 c-19 -60 37 -145
119 -181 51 -22 161 -42 186 -34 31 10 23 24 -17 30 -138 23 -147 26 -190 71
-24 24 -45 56 -48 71 -12 58 -38 80 -50 43z M4190 2900 c0 -14 75 -50 106 -50
39 0 15 24 -43 44 -54 19 -63 19 -63 6z M4917 2096 c-7 -18 1 -26 29 -26 33 0
54 10 54 26 0 19 -76 19 -83 0z M10250 2021 c0 -5 26 -38 58 -73 31 -35 77
-86 101 -115 39 -47 107 -103 124 -103 21 0 -5 33 -120 151 -123 126 -163 161
-163 140z M10410 1981 c0 -13 156 -186 185 -205 54 -36 10 29 -94 137 -70 73
-91 88 -91 68z M6340 1958 c-49 -67 -42 -72 42 -31 59 29 67 40 46 61 -24 24
-57 13 -88 -30z M5710 1976 c0 -22 51 -59 64 -46 6 6 2 18 -14 35 -26 28 -50
33 -50 11z M6754 848 c-67 -61 -121 -180 -108 -234 6 -25 49 -49 107 -59 34
-7 40 -4 76 31 45 46 81 135 81 203 0 39 -5 52 -28 74 -41 39 -74 35 -128 -15z
m99 -23 c23 -17 17 -53 -20 -133 -59 -127 -133 -92 -87 41 15 45 63 107 81
107 4 0 16 -7 26 -15z M3057 555 c-114 -42 -350 -192 -319 -203 7 -2 65 25
130 61 64 35 153 80 196 98 44 19 81 40 84 47 5 16 -42 15 -91 -3z"/>
</g>
</svg>
